<?xml version="1.0" encoding="UTF-8"?>
<svg id="Layer_2" data-name="Layer 2" xmlns="http://www.w3.org/2000/svg" viewBox="0 0 104.04 97.61">
  <defs>
    <style>
      .cls-1 {
        fill: #1d3561;
      }

      .cls-2 {
        fill: none;
        stroke: #1d3561;
        stroke-linecap: round;
        stroke-linejoin: round;
        stroke-width: 1.44px;
      }
    </style>
  </defs>
  <g id="Layer_2-2" data-name="Layer 2">
    <g>
      <path class="cls-1" d="M0,38.04c.47-.37.97-.72,1.42-1.12.97-.85,2.06-1,3.14-.38.68.39,1.06.23,1.56-.23,1.42-1.33,2.9-2.6,4.32-3.94,1-.95,2.12-1.41,3.51-1.38,1.95.05,3.9.07,5.85,0,2.1-.08,4.12.18,6.03,1.1.63.31,1.31.38,2.02.38,1.62-.02,3.25-.02,4.87,0,2.01.03,3.05,1.1,3.08,3.12.01.69.03,1.38,0,2.07-.08,1.7-1.17,2.8-2.87,2.82-3.45.03-6.91,0-10.36.01-.64,0-1.17-.15-1.15-.92.02-.72.55-.8,1.13-.8,3.29,0,6.58,0,9.87,0,1.45,0,1.68-.25,1.7-1.7.03-2.91.03-2.93-2.94-2.91-2.68.02-5.36.16-7.84-1.2-.48-.26-1.09-.28-1.67-.28-2.64.01-5.28.01-7.92,0-.64,0-1.21.11-1.69.55-1.81,1.63-3.61,3.27-5.52,4.99,2.9,3.05,5.77,6.07,8.76,9.22,1.17-1.97,3.01-1.83,4.87-1.81,4.39.05,8.77,0,13.16.03.93,0,1.72-.23,2.5-.76,2.45-1.67,4.92-3.3,7.4-4.92.81-.53,1.39-1.2,1.76-2.1.7-1.68,1.47-3.32,2.3-5.18-1.46,0-2.73-.01-4.01,0-.44,0-.73.32-.98.64-.51.64-1.1,1.22-1.48,1.93-.73,1.37-1.81,1.57-3.17,1.23-.16-.49-.13-.95,0-1.52,1.07.18,1.69-.43,2.18-1.29,1.21-2.12,3-3.09,5.48-2.72.71.11,1.46-.01,2.19.02,1.34.07,1.96.93,1.44,2.14-.9,2.12-1.88,4.22-2.85,6.31-.35.76-.98,1.29-1.66,1.74-2.63,1.75-5.27,3.51-7.9,5.27-.9.6-1.88.88-2.98.87-4.79-.03-9.59.03-14.38-.04-1.19-.02-2.02.35-2.65,1.3,1.12,2.21.96,3.18-.78,4.99-.47.49-1.04.89-1.35,1.52h-.97c-.49-.72-.39-1.34.29-1.9.37-.31.69-.68,1.03-1.03,1.11-1.15,1.12-1.69,0-2.87-3.27-3.45-6.54-6.89-9.82-10.33-1.4-1.46-1.56-1.48-3.07-.17-.66.57-1.23.76-1.84-.02v-.73Z"/>
      <path class="cls-1" d="M42.96,2.42c.41,2.42.63,2.73,1.91,2.74,2.18.02,2.24-.05,2.74-2.8-1.53-.25-3.06-.39-4.66.05M54.38,17.8c-.47,1.85-1.05,3.63-2.4,5.09-2.46,2.64-6.31,3.67-9.49,2.41.13-.44.27-.88.43-1.41,1.23.15,2.42.4,3.63.17,4.38-.84,6.94-4.91,5.8-9.34-.78-3.04-2.67-5.42-4.87-7.58-.52-.51-1.16-.19-1.74-.3-1.88-.37-3.14.49-4.22,1.93-.73.97-1.48,1.93-2.13,3.01-.63-.17-.81-.77-1.28-1.11.88-1.65,2.01-3.03,3.33-4.23.63-.57.66-1.07.37-1.78-.4-.97-.67-1.99-1.06-2.97-.25-.63-.22-1.16.22-1.68h8.53c.49.47.57.97.3,1.63-.44,1.08-.75,2.21-1.15,3.31-.17.47-.17.82.22,1.19,2.8,2.69,4.8,5.84,5.51,9.72v1.95Z"/>
      <path class="cls-1" d="M17.1,2.41c.4,2.59.74,2.89,3.1,2.75.85-.05,1.43-1.18,1.46-2.8-1.49-.29-2.99-.35-4.55.05M23.65,0c.48.48.52.99.27,1.65-.48,1.24-1.22,2.54-1.18,3.79.04,1.25,1.61,1.9,2.33,2.96.47.7.98,1.39,1.51,2.14-.39.44-.75.86-1.18,1.35-1.03-1.58-2.1-3.04-3.37-4.35-.49-.5-1.02-.63-1.69-.74-2.24-.35-3.75.55-5.03,2.33-1.51,2.09-2.88,4.19-3.19,6.84-.57,4.9,3.78,8.98,8.63,8.04.31-.06.62-.21,1.03-.03.12.39.25.83.38,1.27-3.84,1.73-9.02-.44-10.94-4.58-1.4-3.02-1-6,.38-8.91.98-2.08,2.39-3.86,4.03-5.45.48-.46.61-.86.37-1.48-.41-1.05-.7-2.16-1.14-3.2-.27-.65-.22-1.15.25-1.65h.73c1.06.66,2.11,1.01,3.17,0h4.63Z"/>
      <path class="cls-1" d="M29.89,7.29c.81.75-.07,2.62,1.91,2.67,2.25.05,2.29.01,2.9-2.79-1.52-.36-3.05-.54-4.81.12M32.35,11.71c-1.54-.47-2.51.33-3.43,1.42-2.36,2.79-4.3,5.71-3.81,9.61.5,3.97,4.4,6.67,8.68,6.01,3.69-.57,6.44-4.55,5.81-8.28-.48-2.88-1.99-5.16-3.83-7.32-.92-1.08-1.87-1.93-3.42-1.44M23.33,21.46c.08-4,2.09-7.14,4.78-9.89.87-.89,1.11-1.6.6-2.7-.4-.88-.62-1.84-.97-2.74-.17-.43-.19-.81.14-1.11.29-.27.68-.28,1.03-.11,1.04.5,2.03.15,3.09.08,1.43-.09,2.89.34,4.41-.1.56-.17.75.59.55,1.17-.35,1.03-.67,2.08-1.09,3.09-.38.9-.24,1.51.49,2.22,2.25,2.17,3.95,4.71,4.73,7.8,1.27,5.04-1.6,9.89-6.61,11.15-4.84,1.22-9.67-1.72-10.94-6.64-.19-.72-.14-1.45-.21-2.21"/>
      <path class="cls-2" d="M12.38,62.48c5.34,20.26,23.73,34.41,44.71,34.41,25.49,0,46.23-20.74,46.23-46.23S82.58,4.43,57.08,4.43"/>
      <g>
        <path class="cls-1" d="M57.82,37.54h-5.27s-.07.02-.07.07v3.52s.02.07.07.07h3.67c.12,0,.19.06.19.19v.52c0,.12-.06.19-.19.19h-3.67s-.07.02-.07.07v4.36c0,.12-.06.19-.19.19h-.65c-.13,0-.19-.06-.19-.19v-9.69c0-.12.06-.19.19-.19h6.19c.12,0,.19.06.19.19v.52c0,.12-.06.19-.19.19Z"/>
        <path class="cls-1" d="M59.88,46.52v-9.69c0-.12.06-.19.19-.19h.65c.13,0,.19.06.19.19v9.69c0,.12-.06.19-.19.19h-.65c-.13,0-.19-.06-.19-.19Z"/>
        <path class="cls-1" d="M63.47,46.52v-9.69c0-.12.06-.19.19-.19h.65c.09,0,.16.04.22.13l4.88,7.82s.04.04.06.04c.02,0,.03-.03.03-.06v-7.74c0-.12.06-.19.19-.19h.65c.13,0,.19.06.19.19v9.69c0,.12-.06.19-.19.19h-.65c-.09,0-.16-.04-.22-.13l-4.89-7.85s-.04-.04-.06-.04c-.02,0-.03.03-.03.06v7.77c.01.12-.05.19-.17.19h-.65c-.13,0-.19-.06-.19-.19Z"/>
        <path class="cls-1" d="M74.49,46.41c-.52-.28-.93-.67-1.21-1.17-.29-.5-.43-1.09-.43-1.75v-3.62c0-.66.14-1.24.43-1.75.29-.5.69-.89,1.21-1.17.52-.28,1.13-.42,1.82-.42s1.29.14,1.82.42c.53.28.93.67,1.22,1.17.29.5.43,1.09.43,1.75v3.62c0,.66-.14,1.24-.43,1.75-.29.5-.69.89-1.22,1.17-.53.28-1.14.42-1.82.42s-1.29-.14-1.82-.42ZM78.08,45.29c.44-.44.67-1.03.67-1.75v-3.68c0-.73-.22-1.32-.67-1.76-.45-.45-1.04-.67-1.77-.67s-1.31.22-1.76.67c-.45.45-.67,1.03-.67,1.76v3.68c0,.73.22,1.31.67,1.75.45.44,1.03.66,1.76.66s1.33-.22,1.77-.66Z"/>
        <path class="cls-1" d="M90.96,46.55l-.58-1.75s-.04-.06-.07-.06h-4.33s-.05.02-.07.06l-.57,1.75c-.03.11-.1.16-.2.16h-.7c-.07,0-.12-.02-.15-.06s-.03-.09-.01-.16l3.2-9.69c.03-.11.1-.16.2-.16h.93c.11,0,.17.05.2.16l3.21,9.69s.01.04.01.07c0,.04-.02.07-.05.1-.03.03-.08.04-.12.04h-.7c-.11,0-.17-.05-.2-.16ZM86.28,43.91h3.73c.06,0,.08-.03.06-.09l-1.89-5.88s-.02-.06-.04-.06-.03.02-.04.06l-1.87,5.88c0,.06,0,.09.06.09Z"/>
      </g>
      <g>
        <path class="cls-1" d="M30.44,52.99c0-1.92,1.51-3.62,4.73-3.62s4.71,1.7,4.71,3.62c0,1.39-.73,2.37-1.76,2.9,1.33.63,2.09,1.76,2.09,3.29,0,2.7-2.26,4.22-5.04,4.22s-5.04-1.52-5.04-4.22c0-1.53.77-2.68,2.07-3.29-1.05-.55-1.76-1.48-1.76-2.9ZM33.2,59.04c0,1.02.73,1.78,1.96,1.78s1.92-.78,1.92-1.78c0-1.11-.78-1.78-1.92-1.78s-1.96.63-1.96,1.78ZM36.77,53.47c0-1.02-.65-1.59-1.61-1.59s-1.61.57-1.61,1.61c0,.98.69,1.55,1.61,1.55s1.61-.59,1.61-1.57Z"/>
        <path class="cls-1" d="M43.86,63.29c-1.14,0-1.91-.76-1.91-1.7s.77-1.74,1.91-1.74,1.89.76,1.89,1.74-.77,1.7-1.89,1.7Z"/>
        <path class="cls-1" d="M48.51,52.58h-1.85v-2.94h5.17v13.5h-3.32v-10.56Z"/>
        <path class="cls-1" d="M59.29,49.37c3.88,0,5.25,2.88,5.25,6.84s-1.36,6.88-5.25,6.88-5.25-2.88-5.25-6.88,1.36-6.84,5.25-6.84ZM59.29,52.32c-1.89,0-2.11,1.81-2.11,3.88s.22,3.92,2.11,3.92,2.11-1.78,2.11-3.92-.22-3.88-2.11-3.88Z"/>
        <path class="cls-1" d="M71.52,49.37c3.88,0,5.25,2.88,5.25,6.84s-1.36,6.88-5.25,6.88-5.25-2.88-5.25-6.88,1.36-6.84,5.25-6.84ZM71.52,52.32c-1.89,0-2.11,1.81-2.11,3.88s.22,3.92,2.11,3.92,2.11-1.78,2.11-3.92-.22-3.88-2.11-3.88Z"/>
        <path class="cls-1" d="M79.21,56.1h-1.18v-1.67h1.48c.82-2.68,3.16-4.42,6.26-4.42s5.47,1.74,6.22,4.55h-3.51c-.54-1.07-1.53-1.63-2.75-1.63s-2.19.56-2.75,1.5h3.12v1.67h-3.64c-.02.17-.02.35-.02.54,0,.17,0,.33.02.5h3.64v1.65h-3.16c.56,1,1.55,1.57,2.78,1.57s2.2-.57,2.75-1.65h3.51c-.75,2.81-3.1,4.53-6.22,4.53s-5.47-1.76-6.28-4.46h-1.46v-1.65h1.18c-.02-.17-.02-.33-.02-.5,0-.18,0-.37.02-.54Z"/>
      </g>
      <path class="cls-1" d="M32.53,24.47c-.26,0-.46-.11-.62-.32-.16-.21-.24-.49-.24-.83v-1.24s.03-.07.07-.07h1.5c.1,0,.16-.05.19-.15l.19-.57c.02-.07.02-.12,0-.15-.03-.03-.07-.05-.12-.05h-1.75s-.07-.02-.07-.07v-.58s.03-.07.07-.07h1.97c.1,0,.16-.05.19-.15l.19-.55c.02-.07.02-.12-.01-.15-.03-.03-.07-.05-.13-.05h-2.21s-.07-.02-.07-.07v-1.28c0-.34.08-.62.24-.83.16-.21.36-.32.62-.32s.44.09.6.26c.15.17.24.4.26.68.02.11.07.16.16.16h.03l1.35-.16c.11-.02.16-.07.16-.16v-.03c-.1-.68-.38-1.22-.83-1.61-.46-.39-1.03-.59-1.73-.59-.78,0-1.4.24-1.86.74-.47.49-.7,1.15-.7,1.99v1.17s-.03.07-.07.07h-.74s-.09.02-.12.05c-.04.03-.05.08-.05.12v.55s.02.09.05.12c.03.03.08.05.12.05h.74s.07.02.07.07v.58s-.03.07-.07.07h-.74s-.09.02-.12.05c-.04.03-.05.07-.05.12v.57s.02.09.05.12c.03.03.08.05.12.05h.74s.07.02.07.07v1.11c0,.83.23,1.49.7,1.99.47.5,1.09.75,1.86.75.68,0,1.24-.19,1.69-.57.45-.38.73-.9.84-1.57.01-.06,0-.1-.02-.14-.03-.03-.07-.06-.12-.07l-1.34-.17c-.11-.01-.17.04-.19.16-.03.28-.12.5-.27.66-.15.16-.35.24-.58.24"/>
      <path class="cls-1" d="M19.66,20.46c-.26,0-.46-.11-.62-.32-.16-.21-.24-.49-.24-.83v-1.24s.03-.07.07-.07h1.5c.1,0,.16-.05.19-.15l.19-.57c.02-.07.02-.12,0-.15-.03-.03-.07-.05-.12-.05h-1.75s-.07-.02-.07-.07v-.58s.03-.07.07-.07h1.97c.1,0,.16-.05.19-.15l.19-.55c.02-.07.02-.12-.01-.15-.03-.03-.07-.05-.13-.05h-2.21s-.07-.02-.07-.07v-1.28c0-.34.08-.62.24-.83.16-.21.36-.32.62-.32s.44.09.6.26c.15.17.24.4.26.68.02.11.07.16.16.16h.03l1.35-.16c.11-.02.16-.07.16-.16v-.03c-.1-.68-.38-1.22-.83-1.61-.46-.39-1.03-.59-1.73-.59-.78,0-1.4.24-1.86.74-.47.49-.7,1.15-.7,1.99v1.17s-.03.07-.07.07h-.74s-.09.02-.12.05c-.04.03-.05.08-.05.12v.55s.02.09.05.12c.03.03.08.05.12.05h.74s.07.02.07.07v.58s-.03.07-.07.07h-.74s-.09.02-.12.05c-.04.03-.05.07-.05.12v.57s.02.09.05.12c.03.03.08.05.12.05h.74s.07.02.07.07v1.11c0,.83.23,1.49.7,1.99.47.5,1.09.75,1.86.75.68,0,1.24-.19,1.69-.57.45-.38.73-.9.84-1.57.01-.06,0-.1-.02-.14-.03-.03-.07-.06-.12-.07l-1.34-.17c-.11-.01-.17.04-.19.16-.03.28-.12.5-.27.66-.15.16-.35.24-.58.24"/>
      <path class="cls-1" d="M45.39,20.46c-.26,0-.46-.11-.62-.32-.16-.21-.24-.49-.24-.83v-1.24s.03-.07.07-.07h1.5c.1,0,.16-.05.19-.15l.19-.57c.02-.07.02-.12,0-.15-.03-.03-.07-.05-.12-.05h-1.75s-.07-.02-.07-.07v-.58s.03-.07.07-.07h1.97c.1,0,.16-.05.19-.15l.19-.55c.02-.07.02-.12-.01-.15-.03-.03-.07-.05-.13-.05h-2.21s-.07-.02-.07-.07v-1.28c0-.34.08-.62.24-.83.16-.21.36-.32.62-.32s.44.09.6.26c.15.17.24.4.26.68.02.11.07.16.16.16h.03l1.35-.16c.11-.02.16-.07.16-.16v-.03c-.1-.68-.38-1.22-.83-1.61-.46-.39-1.03-.59-1.73-.59-.78,0-1.4.24-1.86.74-.47.49-.7,1.15-.7,1.99v1.17s-.03.07-.07.07h-.74s-.09.02-.12.05c-.04.03-.05.08-.05.12v.55s.02.09.05.12c.03.03.08.05.12.05h.74s.07.02.07.07v.58s-.03.07-.07.07h-.74s-.09.02-.12.05c-.04.03-.05.07-.05.12v.57s.02.09.05.12c.03.03.08.05.12.05h.74s.07.02.07.07v1.11c0,.83.23,1.49.7,1.99.47.5,1.09.75,1.86.75.68,0,1.24-.19,1.69-.57.45-.38.73-.9.84-1.57.01-.06,0-.1-.02-.14-.03-.03-.07-.06-.12-.07l-1.34-.17c-.11-.01-.17.04-.19.16-.03.28-.12.5-.27.66-.15.16-.35.24-.58.24"/>
    </g>
  </g>
</svg>