<?xml version="1.0" encoding="UTF-8"?>
<svg id="Layer_2" data-name="Layer 2" xmlns="http://www.w3.org/2000/svg" viewBox="0 0 147.86 62.42">
  <defs>
    <style>
      .cls-1 {
        stroke: #fff;
        stroke-width: .47px;
      }

      .cls-1, .cls-2, .cls-3, .cls-4 {
        fill: none;
        stroke-miterlimit: 10;
      }

      .cls-5 {
        fill: #1d3561;
      }

      .cls-2, .cls-3, .cls-4 {
        stroke: #1d3561;
      }

      .cls-3 {
        stroke-width: .72px;
      }

      .cls-4 {
        stroke-width: .67px;
      }
    </style>
  </defs>
  <g id="Layer_2-2" data-name="Layer 2">
    <g>
      <g>
        <path class="cls-5" d="M61.88,55.36c-.11-.52-.37-.8-.93-.8-.84,0-1.17.7-1.18,2.23.32-.51.96-.81,1.69-.81,1.39,0,2.37.9,2.37,2.54s-1.01,2.65-2.72,2.65c-2.4,0-2.99-1.69-2.99-4.05,0-2.7.85-4.06,2.92-4.06,1.71,0,2.48,1.12,2.58,2.29h-1.74ZM59.92,58.5c0,.69.4,1.1,1.11,1.1.63,0,1.04-.4,1.04-1.07s-.36-1.09-1.06-1.09c-.59,0-1.09.35-1.09,1.06Z"/>
        <path class="cls-5" d="M67.96,53.07c2.27,0,3.07,1.69,3.07,4s-.8,4.02-3.07,4.02-3.07-1.69-3.07-4.02.8-4,3.07-4ZM67.96,54.8c-1.1,0-1.23,1.06-1.23,2.27s.13,2.29,1.23,2.29,1.23-1.04,1.23-2.29-.13-2.27-1.23-2.27Z"/>
        <path class="cls-5" d="M72.34,53.53h2.21l2.15,5.26,2.13-5.26h2.2v7.59h-1.87v-4.55l-1.72,4.55h-1.51l-1.73-4.57v4.57h-1.87v-7.59Z"/>
        <path class="cls-5" d="M88.54,60.42l1.68,2h-2.26l-.98-1.31c-.27.05-.56.09-.85.09-2.17,0-3.94-1.61-3.94-3.9s1.77-3.88,3.94-3.88,3.92,1.6,3.92,3.88c0,1.33-.59,2.42-1.51,3.12ZM86.12,59.51c1.22,0,2.02-.88,2.02-2.21s-.8-2.21-2.02-2.21-2.03.86-2.03,2.21.79,2.21,2.03,2.21Z"/>
      </g>
      <line class="cls-3" y1="58" x2="53.13" y2="58"/>
      <line class="cls-3" x1="94.74" y1="58" x2="147.86" y2="58"/>
      <g>
        <g>
          <rect class="cls-2" x=".96" y=".5" width="33.13" height="47.42"/>
          <path class="cls-5" d="M29.68,4.91v38.61H5.36V4.91h24.32M30.35,4.23H4.69v39.95h25.66V4.23h0Z"/>
          <rect class="cls-5" x="4.69" y="4.23" width="25.66" height="27.06"/>
          <line class="cls-1" x1="30.35" y1="29.14" x2="4.69" y2="29.14"/>
          <line class="cls-1" x1="30.35" y1="25.9" x2="4.69" y2="25.9"/>
          <line class="cls-1" x1="30.35" y1="22.67" x2="4.69" y2="22.67"/>
          <line class="cls-1" x1="30.35" y1="19.44" x2="4.69" y2="19.44"/>
          <line class="cls-1" x1="30.35" y1="16.2" x2="4.69" y2="16.2"/>
          <line class="cls-1" x1="30.35" y1="12.97" x2="4.69" y2="12.97"/>
          <line class="cls-1" x1="30.35" y1="9.74" x2="4.69" y2="9.74"/>
          <line class="cls-1" x1="30.35" y1="6.5" x2="4.69" y2="6.5"/>
          <line class="cls-4" x1="5.27" y1="43.61" x2=".96" y2="47.92"/>
          <line class="cls-4" x1="29.77" y1="43.61" x2="34.09" y2="47.92"/>
          <line class="cls-4" x1="29.77" y1="4.82" x2="34.09" y2=".5"/>
          <line class="cls-4" x1="5.15" y1="4.82" x2=".96" y2=".5"/>
        </g>
        <g>
          <rect class="cls-2" x="36.71" y=".5" width="33.13" height="47.42"/>
          <path class="cls-5" d="M65.44,4.91v38.61h-24.32V4.91h24.32M66.11,4.23h-25.66v39.95h25.66V4.23h0Z"/>
          <rect class="cls-5" x="40.45" y="4.23" width="25.66" height="27.06"/>
          <line class="cls-1" x1="66.11" y1="29.14" x2="40.45" y2="29.14"/>
          <line class="cls-1" x1="66.11" y1="25.9" x2="40.45" y2="25.9"/>
          <line class="cls-1" x1="66.11" y1="22.67" x2="40.45" y2="22.67"/>
          <line class="cls-1" x1="66.11" y1="19.44" x2="40.45" y2="19.44"/>
          <line class="cls-1" x1="66.11" y1="16.2" x2="40.45" y2="16.2"/>
          <line class="cls-1" x1="66.11" y1="12.97" x2="40.45" y2="12.97"/>
          <line class="cls-1" x1="66.11" y1="9.74" x2="40.45" y2="9.74"/>
          <line class="cls-1" x1="66.11" y1="6.5" x2="40.45" y2="6.5"/>
          <line class="cls-4" x1="41.02" y1="43.61" x2="36.71" y2="47.92"/>
          <line class="cls-4" x1="65.53" y1="43.61" x2="69.84" y2="47.92"/>
          <line class="cls-4" x1="65.53" y1="4.82" x2="69.84" y2=".5"/>
          <line class="cls-4" x1="40.9" y1="4.82" x2="36.71" y2=".5"/>
        </g>
        <g>
          <rect class="cls-2" x="77.55" y=".5" width="33.13" height="47.42"/>
          <path class="cls-5" d="M106.27,4.91v38.61h-24.32V4.91h24.32M106.94,4.23h-25.66v39.95h25.66V4.23h0Z"/>
          <rect class="cls-5" x="81.28" y="4.23" width="25.66" height="27.06"/>
          <line class="cls-1" x1="106.94" y1="29.14" x2="81.28" y2="29.14"/>
          <line class="cls-1" x1="106.94" y1="25.9" x2="81.28" y2="25.9"/>
          <line class="cls-1" x1="106.94" y1="22.67" x2="81.28" y2="22.67"/>
          <line class="cls-1" x1="106.94" y1="19.44" x2="81.28" y2="19.44"/>
          <line class="cls-1" x1="106.94" y1="16.2" x2="81.28" y2="16.2"/>
          <line class="cls-1" x1="106.94" y1="12.97" x2="81.28" y2="12.97"/>
          <line class="cls-1" x1="106.94" y1="9.74" x2="81.28" y2="9.74"/>
          <line class="cls-1" x1="106.94" y1="6.5" x2="81.28" y2="6.5"/>
          <line class="cls-4" x1="81.86" y1="43.61" x2="77.55" y2="47.92"/>
          <line class="cls-4" x1="106.36" y1="43.61" x2="110.68" y2="47.92"/>
          <line class="cls-4" x1="106.36" y1="4.82" x2="110.68" y2=".5"/>
          <line class="cls-4" x1="81.74" y1="4.82" x2="77.55" y2=".5"/>
        </g>
        <g>
          <rect class="cls-2" x="113.3" y=".5" width="33.13" height="47.42"/>
          <path class="cls-5" d="M142.03,4.91v38.61h-24.32V4.91h24.32M142.7,4.23h-25.66v39.95h25.66V4.23h0Z"/>
          <rect class="cls-5" x="117.04" y="4.23" width="25.66" height="27.06"/>
          <line class="cls-1" x1="142.7" y1="29.14" x2="117.04" y2="29.14"/>
          <line class="cls-1" x1="142.7" y1="25.9" x2="117.04" y2="25.9"/>
          <line class="cls-1" x1="142.7" y1="22.67" x2="117.04" y2="22.67"/>
          <line class="cls-1" x1="142.7" y1="19.44" x2="117.04" y2="19.44"/>
          <line class="cls-1" x1="142.7" y1="16.2" x2="117.04" y2="16.2"/>
          <line class="cls-1" x1="142.7" y1="12.97" x2="117.04" y2="12.97"/>
          <line class="cls-1" x1="142.7" y1="9.74" x2="117.04" y2="9.74"/>
          <line class="cls-1" x1="142.7" y1="6.5" x2="117.04" y2="6.5"/>
          <line class="cls-4" x1="117.61" y1="43.61" x2="113.3" y2="47.92"/>
          <line class="cls-4" x1="142.12" y1="43.61" x2="146.43" y2="47.92"/>
          <line class="cls-4" x1="142.12" y1="4.82" x2="146.43" y2=".5"/>
          <line class="cls-4" x1="117.49" y1="4.82" x2="113.3" y2=".5"/>
        </g>
      </g>
    </g>
  </g>
</svg>