<?xml version="1.0" encoding="UTF-8"?>
<svg id="Layer_2" data-name="Layer 2" xmlns="http://www.w3.org/2000/svg" viewBox="0 0 150.11 42">
  <defs>
    <style>
      .cls-1 {
        fill: #1d3561;
      }

      .cls-2 {
        stroke-width: .32px;
      }

      .cls-2, .cls-3 {
        fill: none;
        stroke: #1d3561;
        stroke-miterlimit: 10;
      }

      .cls-3 {
        stroke-width: .72px;
      }
    </style>
  </defs>
  <g id="Layer_2-2" data-name="Layer 2">
    <g>
      <g>
        <path class="cls-1" d="M63.43,39.3h-3.67v-1.49l3.45-4.89h2.09v4.78h.9v1.6h-.9v1.41h-1.87v-1.41ZM63.56,37.69v-2.75l-1.83,2.75h1.83Z"/>
        <path class="cls-1" d="M70.17,32.64c2.27,0,3.07,1.69,3.07,4s-.8,4.02-3.07,4.02-3.07-1.69-3.07-4.02.8-4,3.07-4ZM70.17,34.37c-1.1,0-1.23,1.06-1.23,2.27s.13,2.29,1.23,2.29,1.23-1.04,1.23-2.29-.13-2.27-1.23-2.27Z"/>
        <path class="cls-1" d="M74.54,33.11h2.21l2.15,5.26,2.13-5.26h2.2v7.59h-1.87v-4.55l-1.72,4.55h-1.51l-1.73-4.57v4.57h-1.87v-7.59Z"/>
        <path class="cls-1" d="M90.73,40l1.68,2h-2.26l-.98-1.31c-.27.05-.56.09-.85.09-2.17,0-3.94-1.61-3.94-3.9s1.77-3.88,3.94-3.88,3.92,1.6,3.92,3.88c0,1.33-.59,2.42-1.51,3.12ZM88.32,39.09c1.22,0,2.02-.88,2.02-2.21s-.8-2.21-2.02-2.21-2.03.86-2.03,2.21.79,2.21,2.03,2.21Z"/>
      </g>
      <line class="cls-3" x1="1.99" y1="37.58" x2="55.12" y2="37.58"/>
      <line class="cls-3" x1="96.73" y1="37.58" x2="149.86" y2="37.58"/>
      <g>
        <path class="cls-1" d="M25.88,1.02h-11.98v24.73h11.98V1.02ZM.99,25.71h11.99V.99H.99v24.72ZM13.4,26.53c-4,0-8-.03-11.99.02-.96.01-1.25-.28-1.25-1.23.03-7.96.03-15.91,0-23.87C.16.43.5.16,1.49.16c7.96.03,15.91.04,23.87,0,1.08,0,1.36.31,1.35,1.37-.04,7.92-.04,15.83,0,23.75,0,1.03-.33,1.29-1.31,1.28-4-.05-8-.02-11.99-.02"/>
        <path class="cls-2" d="M25.88,1.02h-11.98v24.73h11.98V1.02ZM.99,25.71h11.99V.99H.99v24.72ZM13.4,26.53c-4,0-8-.03-11.99.02-.96.01-1.25-.28-1.25-1.23.03-7.96.03-15.91,0-23.87C.16.43.5.16,1.49.16c7.96.03,15.91.04,23.87,0,1.08,0,1.36.31,1.35,1.37-.04,7.92-.04,15.83,0,23.75,0,1.03-.33,1.29-1.31,1.28-4-.05-8-.02-11.99-.02"/>
        <path class="cls-1" d="M2.94,13.52c0,3.11.02,6.21-.01,9.32,0,.82.23,1.16,1.1,1.14,1.97-.05,3.95-.04,5.93,0,.78.01,1.08-.25,1.07-1.04-.02-6.25-.02-12.5,0-18.76,0-.73-.25-1.01-.98-.99-1.98.03-3.95.06-5.93-.01-1-.03-1.21.36-1.2,1.28.05,3.02.02,6.05.02,9.08M11.71,13.67c0,3.11,0,6.21,0,9.32,0,1.4-.24,1.65-1.6,1.65-2.1.01-4.19-.03-6.29.01-1.14.02-1.6-.46-1.6-1.59.02-6.33.02-12.66,0-19,0-1.11.43-1.63,1.57-1.61,2.14.04,4.28.04,6.41,0,1.09-.02,1.53.46,1.52,1.53-.02,3.23,0,6.45,0,9.68"/>
        <path class="cls-2" d="M2.94,13.52c0,3.11.02,6.21-.01,9.32,0,.82.23,1.16,1.1,1.14,1.97-.05,3.95-.04,5.93,0,.78.01,1.08-.25,1.07-1.04-.02-6.25-.02-12.5,0-18.76,0-.73-.25-1.01-.98-.99-1.98.03-3.95.06-5.93-.01-1-.03-1.21.36-1.2,1.28.05,3.02.02,6.05.02,9.08M11.71,13.67c0,3.11,0,6.21,0,9.32,0,1.4-.24,1.65-1.6,1.65-2.1.01-4.19-.03-6.29.01-1.14.02-1.6-.46-1.6-1.59.02-6.33.02-12.66,0-19,0-1.11.43-1.63,1.57-1.61,2.14.04,4.28.04,6.41,0,1.09-.02,1.53.46,1.52,1.53-.02,3.23,0,6.45,0,9.68"/>
        <path class="cls-1" d="M23.96,13.57c0-3.11-.02-6.22.01-9.32,0-.77-.24-1.08-1.04-1.07-2.02.04-4.04.04-6.05,0-.79-.01-1.05.27-1.05,1.06.02,6.22.02,12.43,0,18.65,0,.87.35,1.11,1.17,1.09,1.94-.04,3.88-.05,5.81,0,.93.03,1.18-.33,1.17-1.21-.04-3.07-.01-6.14-.01-9.2M15.16,13.45c0-3.07,0-6.14,0-9.21,0-1.52.25-1.75,1.77-1.76,2.06,0,4.12.02,6.18-.01,1.08-.02,1.57.46,1.57,1.51,0,6.38,0,12.76,0,19.15,0,1.04-.46,1.55-1.55,1.53-2.1-.04-4.2,0-6.3-.01-1.4,0-1.65-.27-1.66-1.75-.01-3.15,0-6.3,0-9.45"/>
        <path class="cls-2" d="M23.96,13.57c0-3.11-.02-6.22.01-9.32,0-.77-.24-1.08-1.04-1.07-2.02.04-4.04.04-6.05,0-.79-.01-1.05.27-1.05,1.06.02,6.22.02,12.43,0,18.65,0,.87.35,1.11,1.17,1.09,1.94-.04,3.88-.05,5.81,0,.93.03,1.18-.33,1.17-1.21-.04-3.07-.01-6.14-.01-9.2M15.16,13.45c0-3.07,0-6.14,0-9.21,0-1.52.25-1.75,1.77-1.76,2.06,0,4.12.02,6.18-.01,1.08-.02,1.57.46,1.57,1.51,0,6.38,0,12.76,0,19.15,0,1.04-.46,1.55-1.55,1.53-2.1-.04-4.2,0-6.3-.01-1.4,0-1.65-.27-1.66-1.75-.01-3.15,0-6.3,0-9.45"/>
        <path class="cls-1" d="M4.29,11.61c1.71-1.41,3.42-2.81,5.13-4.22.07.09.14.17.22.26-1.71,1.42-3.42,2.84-5.13,4.26-.07-.1-.14-.2-.21-.3"/>
        <path class="cls-2" d="M4.29,11.61c1.71-1.41,3.42-2.81,5.13-4.22.07.09.14.17.22.26-1.71,1.42-3.42,2.84-5.13,4.26-.07-.1-.14-.2-.21-.3"/>
        <path class="cls-1" d="M17.24,20.06c1.71-1.41,3.43-2.82,5.14-4.24l.22.26c-1.71,1.41-3.41,2.83-5.12,4.24-.08-.09-.16-.18-.24-.26"/>
        <path class="cls-2" d="M17.24,20.06c1.71-1.41,3.43-2.82,5.14-4.24l.22.26c-1.71,1.41-3.41,2.83-5.12,4.24-.08-.09-.16-.18-.24-.26"/>
        <path class="cls-1" d="M56.69,1.02h-11.99v24.73h11.99V1.02ZM31.8,25.71h11.99V.99h-11.99v24.72ZM44.21,26.53c-4,0-8-.03-11.99.02-.96.01-1.25-.28-1.25-1.23.03-7.96.03-15.91,0-23.87,0-1.03.34-1.29,1.33-1.29,7.96.03,15.91.04,23.87,0,1.08,0,1.36.31,1.35,1.37-.04,7.92-.04,15.83,0,23.75,0,1.03-.33,1.29-1.31,1.28-4-.05-7.99-.02-11.99-.02"/>
        <path class="cls-2" d="M56.69,1.02h-11.99v24.73h11.99V1.02ZM31.8,25.71h11.99V.99h-11.99v24.72ZM44.21,26.53c-4,0-8-.03-11.99.02-.96.01-1.25-.28-1.25-1.23.03-7.96.03-15.91,0-23.87,0-1.03.34-1.29,1.33-1.29,7.96.03,15.91.04,23.87,0,1.08,0,1.36.31,1.35,1.37-.04,7.92-.04,15.83,0,23.75,0,1.03-.33,1.29-1.31,1.28-4-.05-7.99-.02-11.99-.02"/>
        <path class="cls-1" d="M33.75,13.52c0,3.11.02,6.21-.01,9.32,0,.82.23,1.16,1.1,1.14,1.97-.05,3.95-.04,5.93,0,.78.01,1.08-.25,1.07-1.04-.02-6.25-.02-12.5,0-18.76,0-.73-.25-1.01-.98-.99-1.97.03-3.95.06-5.93-.01-1-.03-1.21.36-1.2,1.28.05,3.02.02,6.05.02,9.08M42.52,13.67c0,3.11,0,6.21,0,9.32,0,1.4-.24,1.65-1.6,1.65-2.1.01-4.2-.03-6.29.01-1.14.02-1.6-.46-1.6-1.59.02-6.33.02-12.66,0-19,0-1.11.43-1.63,1.57-1.61,2.14.04,4.28.04,6.41,0,1.09-.02,1.53.46,1.52,1.53-.03,3.23,0,6.45,0,9.68"/>
        <path class="cls-2" d="M33.75,13.52c0,3.11.02,6.21-.01,9.32,0,.82.23,1.16,1.1,1.14,1.97-.05,3.95-.04,5.93,0,.78.01,1.08-.25,1.07-1.04-.02-6.25-.02-12.5,0-18.76,0-.73-.25-1.01-.98-.99-1.97.03-3.95.06-5.93-.01-1-.03-1.21.36-1.2,1.28.05,3.02.02,6.05.02,9.08M42.52,13.67c0,3.11,0,6.21,0,9.32,0,1.4-.24,1.65-1.6,1.65-2.1.01-4.2-.03-6.29.01-1.14.02-1.6-.46-1.6-1.59.02-6.33.02-12.66,0-19,0-1.11.43-1.63,1.57-1.61,2.14.04,4.28.04,6.41,0,1.09-.02,1.53.46,1.52,1.53-.03,3.23,0,6.45,0,9.68"/>
        <path class="cls-1" d="M54.78,13.57c0-3.11-.02-6.22.01-9.32,0-.77-.24-1.08-1.04-1.07-2.02.04-4.04.04-6.05,0-.79-.01-1.05.27-1.05,1.06.02,6.22.02,12.43,0,18.65,0,.87.36,1.11,1.17,1.09,1.94-.04,3.88-.05,5.81,0,.93.03,1.18-.33,1.17-1.21-.04-3.07-.01-6.14-.01-9.2M45.98,13.45c0-3.07,0-6.14,0-9.21,0-1.52.26-1.75,1.77-1.76,2.06,0,4.12.02,6.18-.01,1.08-.02,1.57.46,1.57,1.51,0,6.38,0,12.76,0,19.15,0,1.04-.46,1.55-1.55,1.53-2.1-.04-4.2,0-6.3-.01-1.4,0-1.65-.27-1.66-1.75-.01-3.15,0-6.3,0-9.45"/>
        <path class="cls-2" d="M54.78,13.57c0-3.11-.02-6.22.01-9.32,0-.77-.24-1.08-1.04-1.07-2.02.04-4.04.04-6.05,0-.79-.01-1.05.27-1.05,1.06.02,6.22.02,12.43,0,18.65,0,.87.36,1.11,1.17,1.09,1.94-.04,3.88-.05,5.81,0,.93.03,1.18-.33,1.17-1.21-.04-3.07-.01-6.14-.01-9.2M45.98,13.45c0-3.07,0-6.14,0-9.21,0-1.52.26-1.75,1.77-1.76,2.06,0,4.12.02,6.18-.01,1.08-.02,1.57.46,1.57,1.51,0,6.38,0,12.76,0,19.15,0,1.04-.46,1.55-1.55,1.53-2.1-.04-4.2,0-6.3-.01-1.4,0-1.65-.27-1.66-1.75-.01-3.15,0-6.3,0-9.45"/>
        <path class="cls-1" d="M35.1,11.61c1.71-1.41,3.42-2.81,5.13-4.22.07.09.14.17.22.26-1.71,1.42-3.42,2.84-5.13,4.26-.07-.1-.14-.2-.21-.3"/>
        <path class="cls-2" d="M35.1,11.61c1.71-1.41,3.42-2.81,5.13-4.22.07.09.14.17.22.26-1.71,1.42-3.42,2.84-5.13,4.26-.07-.1-.14-.2-.21-.3"/>
        <path class="cls-1" d="M48.05,20.06c1.71-1.41,3.43-2.82,5.14-4.24l.22.26c-1.71,1.41-3.41,2.83-5.12,4.24l-.24-.26Z"/>
        <path class="cls-2" d="M48.05,20.06c1.71-1.41,3.43-2.82,5.14-4.24l.22.26c-1.71,1.41-3.41,2.83-5.12,4.24l-.24-.26Z"/>
        <path class="cls-1" d="M87.51,1.02h-11.98v24.73h11.98V1.02ZM62.61,25.71h11.99V.99h-11.99v24.72ZM75.02,26.53c-4,0-8-.03-11.99.02-.96.01-1.25-.28-1.25-1.23.03-7.96.03-15.91,0-23.87,0-1.03.34-1.29,1.33-1.29,7.95.03,15.91.04,23.87,0,1.08,0,1.35.31,1.35,1.37-.04,7.92-.04,15.83,0,23.75,0,1.03-.32,1.29-1.31,1.28-4-.05-7.99-.02-11.99-.02"/>
        <path class="cls-2" d="M87.51,1.02h-11.98v24.73h11.98V1.02ZM62.61,25.71h11.99V.99h-11.99v24.72ZM75.02,26.53c-4,0-8-.03-11.99.02-.96.01-1.25-.28-1.25-1.23.03-7.96.03-15.91,0-23.87,0-1.03.34-1.29,1.33-1.29,7.95.03,15.91.04,23.87,0,1.08,0,1.35.31,1.35,1.37-.04,7.92-.04,15.83,0,23.75,0,1.03-.32,1.29-1.31,1.28-4-.05-7.99-.02-11.99-.02"/>
        <path class="cls-1" d="M64.56,13.52c0,3.11.02,6.21-.01,9.32,0,.82.23,1.16,1.1,1.14,1.97-.05,3.95-.04,5.93,0,.78.01,1.08-.25,1.07-1.04-.02-6.25-.02-12.5,0-18.76,0-.73-.25-1.01-.98-.99-1.98.03-3.95.06-5.93-.01-1-.03-1.21.36-1.2,1.28.05,3.02.02,6.05.02,9.08M73.33,13.67c0,3.11,0,6.21,0,9.32,0,1.4-.24,1.65-1.61,1.65-2.1.01-4.19-.03-6.29.01-1.14.02-1.6-.46-1.6-1.59.02-6.33.02-12.66,0-19,0-1.11.43-1.63,1.57-1.61,2.14.04,4.27.04,6.41,0,1.09-.02,1.53.46,1.52,1.53-.02,3.23,0,6.45,0,9.68"/>
        <path class="cls-2" d="M64.56,13.52c0,3.11.02,6.21-.01,9.32,0,.82.23,1.16,1.1,1.14,1.97-.05,3.95-.04,5.93,0,.78.01,1.08-.25,1.07-1.04-.02-6.25-.02-12.5,0-18.76,0-.73-.25-1.01-.98-.99-1.98.03-3.95.06-5.93-.01-1-.03-1.21.36-1.2,1.28.05,3.02.02,6.05.02,9.08M73.33,13.67c0,3.11,0,6.21,0,9.32,0,1.4-.24,1.65-1.61,1.65-2.1.01-4.19-.03-6.29.01-1.14.02-1.6-.46-1.6-1.59.02-6.33.02-12.66,0-19,0-1.11.43-1.63,1.57-1.61,2.14.04,4.27.04,6.41,0,1.09-.02,1.53.46,1.52,1.53-.02,3.23,0,6.45,0,9.68"/>
        <path class="cls-1" d="M85.59,13.57c0-3.11-.02-6.22.01-9.32,0-.77-.24-1.08-1.04-1.07-2.02.04-4.04.04-6.05,0-.79-.01-1.05.27-1.05,1.06.02,6.22.02,12.43,0,18.65,0,.87.35,1.11,1.17,1.09,1.93-.04,3.88-.05,5.81,0,.93.03,1.18-.33,1.17-1.21-.04-3.07-.01-6.14-.01-9.2M76.79,13.45c0-3.07,0-6.14,0-9.21,0-1.52.26-1.75,1.77-1.76,2.06,0,4.12.02,6.18-.01,1.08-.02,1.57.46,1.57,1.51,0,6.38,0,12.76,0,19.15,0,1.04-.46,1.55-1.55,1.53-2.1-.04-4.2,0-6.3-.01-1.4,0-1.65-.27-1.66-1.75-.01-3.15,0-6.3,0-9.45"/>
        <path class="cls-2" d="M85.59,13.57c0-3.11-.02-6.22.01-9.32,0-.77-.24-1.08-1.04-1.07-2.02.04-4.04.04-6.05,0-.79-.01-1.05.27-1.05,1.06.02,6.22.02,12.43,0,18.65,0,.87.35,1.11,1.17,1.09,1.93-.04,3.88-.05,5.81,0,.93.03,1.18-.33,1.17-1.21-.04-3.07-.01-6.14-.01-9.2M76.79,13.45c0-3.07,0-6.14,0-9.21,0-1.52.26-1.75,1.77-1.76,2.06,0,4.12.02,6.18-.01,1.08-.02,1.57.46,1.57,1.51,0,6.38,0,12.76,0,19.15,0,1.04-.46,1.55-1.55,1.53-2.1-.04-4.2,0-6.3-.01-1.4,0-1.65-.27-1.66-1.75-.01-3.15,0-6.3,0-9.45"/>
        <path class="cls-1" d="M65.91,11.61c1.71-1.41,3.42-2.81,5.13-4.22.07.09.14.17.22.26-1.71,1.42-3.42,2.84-5.13,4.26-.07-.1-.14-.2-.21-.3"/>
        <path class="cls-2" d="M65.91,11.61c1.71-1.41,3.42-2.81,5.13-4.22.07.09.14.17.22.26-1.71,1.42-3.42,2.84-5.13,4.26-.07-.1-.14-.2-.21-.3"/>
        <path class="cls-1" d="M78.86,20.06c1.71-1.41,3.43-2.82,5.14-4.24l.22.26c-1.71,1.41-3.41,2.83-5.12,4.24-.08-.09-.16-.18-.24-.26"/>
        <path class="cls-2" d="M78.86,20.06c1.71-1.41,3.43-2.82,5.14-4.24l.22.26c-1.71,1.41-3.41,2.83-5.12,4.24-.08-.09-.16-.18-.24-.26"/>
        <path class="cls-1" d="M118.32,1.02h-11.99v24.73h11.99V1.02ZM93.42,25.71h11.99V.99h-11.99v24.72ZM105.83,26.53c-4,0-8-.03-11.99.02-.96.01-1.25-.28-1.25-1.23.03-7.96.03-15.91,0-23.87,0-1.03.34-1.29,1.33-1.29,7.95.03,15.91.04,23.87,0,1.07,0,1.36.31,1.35,1.37-.05,7.92-.04,15.83,0,23.75,0,1.03-.33,1.29-1.31,1.28-4-.05-8-.02-11.99-.02"/>
        <path class="cls-2" d="M118.32,1.02h-11.99v24.73h11.99V1.02ZM93.42,25.71h11.99V.99h-11.99v24.72ZM105.83,26.53c-4,0-8-.03-11.99.02-.96.01-1.25-.28-1.25-1.23.03-7.96.03-15.91,0-23.87,0-1.03.34-1.29,1.33-1.29,7.95.03,15.91.04,23.87,0,1.07,0,1.36.31,1.35,1.37-.05,7.92-.04,15.83,0,23.75,0,1.03-.33,1.29-1.31,1.28-4-.05-8-.02-11.99-.02"/>
        <path class="cls-1" d="M95.37,13.52c0,3.11.02,6.21-.01,9.32-.01.82.23,1.16,1.1,1.14,1.97-.05,3.95-.04,5.93,0,.78.01,1.08-.25,1.08-1.04-.02-6.25-.02-12.5,0-18.76,0-.73-.25-1.01-.98-.99-1.98.03-3.95.06-5.93-.01-1-.03-1.21.36-1.2,1.28.05,3.02.02,6.05.02,9.08M104.14,13.67c0,3.11,0,6.21,0,9.32,0,1.4-.24,1.65-1.61,1.65-2.1.01-4.19-.03-6.29.01-1.14.02-1.6-.46-1.6-1.59.02-6.33.02-12.66,0-19,0-1.11.43-1.63,1.57-1.61,2.14.04,4.28.04,6.41,0,1.09-.02,1.53.46,1.52,1.53-.03,3.23,0,6.45,0,9.68"/>
        <path class="cls-2" d="M95.37,13.52c0,3.11.02,6.21-.01,9.32-.01.82.23,1.16,1.1,1.14,1.97-.05,3.95-.04,5.93,0,.78.01,1.08-.25,1.08-1.04-.02-6.25-.02-12.5,0-18.76,0-.73-.25-1.01-.98-.99-1.98.03-3.95.06-5.93-.01-1-.03-1.21.36-1.2,1.28.05,3.02.02,6.05.02,9.08M104.14,13.67c0,3.11,0,6.21,0,9.32,0,1.4-.24,1.65-1.61,1.65-2.1.01-4.19-.03-6.29.01-1.14.02-1.6-.46-1.6-1.59.02-6.33.02-12.66,0-19,0-1.11.43-1.63,1.57-1.61,2.14.04,4.28.04,6.41,0,1.09-.02,1.53.46,1.52,1.53-.03,3.23,0,6.45,0,9.68"/>
        <path class="cls-1" d="M116.4,13.57c0-3.11-.02-6.22.01-9.32,0-.77-.24-1.08-1.04-1.07-2.02.04-4.04.04-6.05,0-.79-.01-1.06.27-1.05,1.06.02,6.22.02,12.43,0,18.65,0,.87.35,1.11,1.17,1.09,1.94-.04,3.88-.05,5.81,0,.93.03,1.18-.33,1.17-1.21-.04-3.07-.01-6.14-.01-9.2M107.6,13.45c0-3.07,0-6.14,0-9.21,0-1.52.26-1.75,1.77-1.76,2.06,0,4.12.02,6.18-.01,1.08-.02,1.57.46,1.57,1.51,0,6.38,0,12.76,0,19.15,0,1.04-.46,1.55-1.55,1.53-2.1-.04-4.2,0-6.3-.01-1.4,0-1.65-.27-1.66-1.75-.01-3.15,0-6.3,0-9.45"/>
        <path class="cls-2" d="M116.4,13.57c0-3.11-.02-6.22.01-9.32,0-.77-.24-1.08-1.04-1.07-2.02.04-4.04.04-6.05,0-.79-.01-1.06.27-1.05,1.06.02,6.22.02,12.43,0,18.65,0,.87.35,1.11,1.17,1.09,1.94-.04,3.88-.05,5.81,0,.93.03,1.18-.33,1.17-1.21-.04-3.07-.01-6.14-.01-9.2M107.6,13.45c0-3.07,0-6.14,0-9.21,0-1.52.26-1.75,1.77-1.76,2.06,0,4.12.02,6.18-.01,1.08-.02,1.57.46,1.57,1.51,0,6.38,0,12.76,0,19.15,0,1.04-.46,1.55-1.55,1.53-2.1-.04-4.2,0-6.3-.01-1.4,0-1.65-.27-1.66-1.75-.01-3.15,0-6.3,0-9.45"/>
        <path class="cls-1" d="M96.72,11.61c1.71-1.41,3.42-2.81,5.13-4.22.07.09.14.17.21.26-1.71,1.42-3.42,2.84-5.13,4.26-.07-.1-.14-.2-.21-.3"/>
        <path class="cls-2" d="M96.72,11.61c1.71-1.41,3.42-2.81,5.13-4.22.07.09.14.17.21.26-1.71,1.42-3.42,2.84-5.13,4.26-.07-.1-.14-.2-.21-.3"/>
        <path class="cls-1" d="M109.67,20.06c1.71-1.41,3.43-2.82,5.14-4.24l.22.26c-1.71,1.41-3.41,2.83-5.12,4.24-.08-.09-.16-.18-.24-.26"/>
        <path class="cls-2" d="M109.67,20.06c1.71-1.41,3.43-2.82,5.14-4.24l.22.26c-1.71,1.41-3.41,2.83-5.12,4.24-.08-.09-.16-.18-.24-.26"/>
        <path class="cls-1" d="M149.13,1.02h-11.99v24.73h11.99V1.02ZM124.23,25.71h11.99V.99h-11.99v24.72ZM136.65,26.53c-4,0-8-.03-11.99.02-.96.01-1.25-.28-1.25-1.23.03-7.96.03-15.91,0-23.87,0-1.03.34-1.29,1.33-1.29,7.96.03,15.91.04,23.87,0,1.08,0,1.36.31,1.35,1.37-.04,7.92-.04,15.83,0,23.75,0,1.03-.33,1.29-1.31,1.28-4-.05-7.99-.02-11.99-.02"/>
        <path class="cls-2" d="M149.13,1.02h-11.99v24.73h11.99V1.02ZM124.23,25.71h11.99V.99h-11.99v24.72ZM136.65,26.53c-4,0-8-.03-11.99.02-.96.01-1.25-.28-1.25-1.23.03-7.96.03-15.91,0-23.87,0-1.03.34-1.29,1.33-1.29,7.96.03,15.91.04,23.87,0,1.08,0,1.36.31,1.35,1.37-.04,7.92-.04,15.83,0,23.75,0,1.03-.33,1.29-1.31,1.28-4-.05-7.99-.02-11.99-.02"/>
        <path class="cls-1" d="M126.18,13.52c0,3.11.02,6.21-.01,9.32,0,.82.23,1.16,1.1,1.14,1.97-.05,3.95-.04,5.93,0,.78.01,1.08-.25,1.07-1.04-.02-6.25-.02-12.5,0-18.76,0-.73-.25-1.01-.98-.99-1.98.03-3.95.06-5.93-.01-1-.03-1.21.36-1.2,1.28.05,3.02.02,6.05.02,9.08M134.95,13.67c0,3.11,0,6.21,0,9.32,0,1.4-.24,1.65-1.6,1.65-2.1.01-4.19-.03-6.29.01-1.14.02-1.6-.46-1.6-1.59.02-6.33.02-12.66,0-19,0-1.11.43-1.63,1.57-1.61,2.14.04,4.28.04,6.41,0,1.09-.02,1.53.46,1.52,1.53-.02,3.23,0,6.45,0,9.68"/>
        <path class="cls-2" d="M126.18,13.52c0,3.11.02,6.21-.01,9.32,0,.82.23,1.16,1.1,1.14,1.97-.05,3.95-.04,5.93,0,.78.01,1.08-.25,1.07-1.04-.02-6.25-.02-12.5,0-18.76,0-.73-.25-1.01-.98-.99-1.98.03-3.95.06-5.93-.01-1-.03-1.21.36-1.2,1.28.05,3.02.02,6.05.02,9.08M134.95,13.67c0,3.11,0,6.21,0,9.32,0,1.4-.24,1.65-1.6,1.65-2.1.01-4.19-.03-6.29.01-1.14.02-1.6-.46-1.6-1.59.02-6.33.02-12.66,0-19,0-1.11.43-1.63,1.57-1.61,2.14.04,4.28.04,6.41,0,1.09-.02,1.53.46,1.52,1.53-.02,3.23,0,6.45,0,9.68"/>
        <path class="cls-1" d="M147.21,13.57c0-3.11-.02-6.22.01-9.32,0-.77-.24-1.08-1.04-1.07-2.02.04-4.04.04-6.05,0-.79-.01-1.05.27-1.05,1.06.02,6.22.02,12.43,0,18.65,0,.87.35,1.11,1.17,1.09,1.94-.04,3.88-.05,5.81,0,.93.03,1.18-.33,1.17-1.21-.04-3.07-.01-6.14-.01-9.2M138.41,13.45c0-3.07,0-6.14,0-9.21,0-1.52.26-1.75,1.77-1.76,2.06,0,4.12.02,6.18-.01,1.08-.02,1.57.46,1.57,1.51,0,6.38,0,12.76,0,19.15,0,1.04-.46,1.55-1.55,1.53-2.1-.04-4.2,0-6.3-.01-1.4,0-1.65-.27-1.66-1.75-.01-3.15,0-6.3,0-9.45"/>
        <path class="cls-2" d="M147.21,13.57c0-3.11-.02-6.22.01-9.32,0-.77-.24-1.08-1.04-1.07-2.02.04-4.04.04-6.05,0-.79-.01-1.05.27-1.05,1.06.02,6.22.02,12.43,0,18.65,0,.87.35,1.11,1.17,1.09,1.94-.04,3.88-.05,5.81,0,.93.03,1.18-.33,1.17-1.21-.04-3.07-.01-6.14-.01-9.2M138.41,13.45c0-3.07,0-6.14,0-9.21,0-1.52.26-1.75,1.77-1.76,2.06,0,4.12.02,6.18-.01,1.08-.02,1.57.46,1.57,1.51,0,6.38,0,12.76,0,19.15,0,1.04-.46,1.55-1.55,1.53-2.1-.04-4.2,0-6.3-.01-1.4,0-1.65-.27-1.66-1.75-.01-3.15,0-6.3,0-9.45"/>
        <path class="cls-1" d="M127.54,11.61c1.71-1.41,3.42-2.81,5.13-4.22.07.09.14.17.22.26-1.71,1.42-3.42,2.84-5.13,4.26-.07-.1-.14-.2-.21-.3"/>
        <path class="cls-2" d="M127.54,11.61c1.71-1.41,3.42-2.81,5.13-4.22.07.09.14.17.22.26-1.71,1.42-3.42,2.84-5.13,4.26-.07-.1-.14-.2-.21-.3"/>
        <path class="cls-1" d="M140.48,20.06c1.71-1.41,3.43-2.82,5.14-4.24l.22.26c-1.71,1.41-3.41,2.83-5.12,4.24-.08-.09-.16-.18-.24-.26"/>
        <path class="cls-2" d="M140.48,20.06c1.71-1.41,3.43-2.82,5.14-4.24l.22.26c-1.71,1.41-3.41,2.83-5.12,4.24-.08-.09-.16-.18-.24-.26"/>
      </g>
    </g>
  </g>
</svg>