<svg xmlns="http://www.w3.org/2000/svg" xmlns:xlink="http://www.w3.org/1999/xlink" id="Livello_1" x="0px" y="0px" viewBox="0 0 742.52 226.6" style="enable-background:new 0 0 742.52 226.6;" xml:space="preserve"><style type="text/css">	.st0{clip-path:url(#SVGID_2_);fill:#DC4433;}	.st1{clip-path:url(#SVGID_2_);}	.st2{clip-path:url(#SVGID_2_);fill:none;stroke:#000000;stroke-width:1.404;}</style><g>	<defs>		<rect id="SVGID_1_" x="-94.6" y="-181" width="928.35" height="1242.14"></rect>	</defs>	<clipPath id="SVGID_2_">		<use xlink:href="#SVGID_1_" style="overflow:visible;"></use>	</clipPath>	<path class="st0" d="M208.61,75.83c0,13.2-10.7,23.9-23.9,23.9c-13.2,0-23.9-10.7-23.9-23.9c0-13.2,10.71-23.9,23.9-23.9  C197.91,51.93,208.61,62.63,208.61,75.83"></path>	<path class="st1" d="M376.5,121.9L376.5,121.9c-0.01,6.35,5.13,11.48,11.48,11.48h11.46V18.55H376.5V121.9z M267.07,113.4  c-2.66,0-5.12-3.34-5.11-5.02c0-1.68,0.14-89.83,0.14-89.83h-23.41V121.9c0,6.35,5.61,11.48,11.95,11.48l103.82-0.18l-0.15-19.99  C354.31,113.22,269.73,113.4,267.07,113.4 M154.85,18.2h-40.7L38.96,65.12v-3.36l0-43.55h-24.4l0,103.23  c0,6.57,5.96,11.89,12.53,11.89h11.86V86.06c0,0,61.46,38.29,66,41.13c4.54,2.82,11.47,6.2,19.12,6.2h36.73L65.22,73.95  L154.85,18.2z M550.99,109.52l-97.57-90.97H433.1h-11.49l0.03,103.35h-0.01c0,6.35,5.14,11.48,11.49,11.48h11.47V42.41  c0,0,88.76,81.52,92.58,84.99c3.82,3.47,9.21,5.98,14.32,5.98h10.94h11.48l0.02-114.83h-22.95V109.52z M724.04,113.4h-98.06  c-3.5,0-6.6-2.85-6.6-6.34V85.96h79.77l0.14-19.99h-79.76l-0.15-27.44h104.51l0.15-19.98H596.12V121.9  c0,6.35,5.61,11.48,11.95,11.48h116.12L724.04,113.4z"></path>	<line class="st2" x1="14.88" y1="158.08" x2="723.79" y2="158.08"></line>	<polygon class="st1" points="15.39,209.45 15.39,183.38 18.18,183.38 18.18,206.96 31.51,206.96 31.51,209.45  "></polygon>	<path class="st1" d="M67.51,209.45l-2.09-5.9H54.03l-2.09,5.9h-2.97l9.6-26.08h2.34l9.56,26.08H67.51z M59.78,187.37l-4.91,13.77  h9.74L59.78,187.37z"></path>	<polygon class="st1" points="118.45,185.87 118.45,195.46 129.87,195.46 129.87,197.95 118.45,197.95 118.45,209.45 115.66,209.45   115.66,183.38 131.85,183.38 131.85,185.87  "></polygon>	<rect x="152.84" y="183.38" class="st1" width="2.78" height="26.08"></rect>	<polygon class="st1" points="195.72,209.45 181.88,188.54 181.88,209.45 179.09,209.45 179.09,183.38 181.73,183.38 195.57,204.21   195.57,183.38 198.36,183.38 198.36,209.45  "></polygon>	<polygon class="st1" points="221.83,209.45 221.83,183.38 238.02,183.38 238.02,185.87 224.62,185.87 224.62,195.06 236.04,195.06   236.04,197.55 224.62,197.55 224.62,206.96 238.02,206.96 238.02,209.45  "></polygon>	<path class="st1" d="M266.44,209.67c-3.92,0-6.48-0.99-8.94-3.44l1.9-1.91c2.16,2.16,4.17,2.86,7.1,2.86  c3.81,0,6.15-1.79,6.15-4.83c0-1.36-0.4-2.53-1.24-3.26c-0.84-0.73-1.5-0.95-3.41-1.25l-3.04-0.47c-2.05-0.33-3.66-0.99-4.8-1.98  c-1.32-1.17-1.98-2.78-1.98-4.87c0-4.43,3.19-7.36,8.35-7.36c3.33,0,5.53,0.84,7.76,2.86l-1.79,1.79  c-1.61-1.46-3.33-2.23-6.08-2.23c-3.48,0-5.49,1.94-5.49,4.83c0,1.28,0.37,2.31,1.17,3c0.8,0.7,2.16,1.21,3.52,1.43l2.86,0.44  c2.45,0.37,3.66,0.88,4.76,1.83c1.43,1.21,2.2,3,2.2,5.16C275.45,206.85,271.86,209.67,266.44,209.67"></path>	<polygon class="st1" points="304.86,185.87 304.86,209.45 302.07,209.45 302.07,185.87 294.53,185.87 294.53,183.38 312.4,183.38   312.4,185.87  "></polygon>	<path class="st1" d="M348.18,209.45l-5.93-11.57h-6.26v11.57h-2.78v-26.07h10c4.54,0,7.73,2.75,7.73,7.25  c0,3.81-2.31,6.3-5.68,6.99l6.19,11.83H348.18z M342.94,185.87h-6.96v9.56h6.96c3.04,0,5.2-1.58,5.2-4.76  C348.14,187.48,345.98,185.87,342.94,185.87"></path>	<path class="st1" d="M388.36,209.45l-2.09-5.9h-11.39l-2.09,5.9h-2.97l9.6-26.08h2.34l9.56,26.08H388.36z M380.63,187.37  l-4.91,13.77h9.74L380.63,187.37z"></path>	<polygon class="st1" points="436.51,209.45 436.51,183.38 439.3,183.38 439.3,206.96 452.63,206.96 452.63,209.45  "></polygon>	<path class="st1" d="M480.97,209.67c-5.27,0-9.08-3.62-9.08-8.82v-17.47h2.78v17.25c0,3.96,2.49,6.55,6.3,6.55  c3.81,0,6.33-2.6,6.33-6.55v-17.25h2.78v17.47C490.09,206.05,486.25,209.67,480.97,209.67"></path>	<polygon class="st1" points="532.76,209.45 532.76,189.64 525.62,205.35 523.24,205.35 515.99,189.64 515.99,209.45 513.2,209.45   513.2,183.38 515.99,183.38 524.48,201.87 532.76,183.38 535.54,183.38 535.54,209.45  "></polygon>	<rect x="559.02" y="183.38" class="st1" width="2.78" height="26.08"></rect>	<polygon class="st1" points="601.9,209.45 588.06,188.54 588.06,209.45 585.28,209.45 585.28,183.38 587.91,183.38 601.76,204.21   601.76,183.38 604.54,183.38 604.54,209.45  "></polygon>	<path class="st1" d="M642.81,206.96c-1.76,1.76-4.06,2.71-6.66,2.71s-4.91-0.95-6.66-2.71c-2.45-2.45-2.45-5.02-2.45-10.55  c0-5.53,0-8.09,2.45-10.55c1.76-1.76,4.07-2.71,6.66-2.71s4.91,0.95,6.66,2.71c2.46,2.45,2.46,5.02,2.46,10.55  C645.26,201.94,645.26,204.51,642.81,206.96 M640.65,187.51c-1.14-1.17-2.78-1.87-4.5-1.87c-1.72,0-3.37,0.69-4.51,1.87  c-1.65,1.69-1.83,3.44-1.83,8.9c0,5.46,0.18,7.22,1.83,8.9c1.14,1.17,2.78,1.87,4.51,1.87c1.72,0,3.37-0.7,4.5-1.87  c1.65-1.68,1.83-3.44,1.83-8.9C642.48,190.96,642.3,189.2,640.65,187.51"></path>	<path class="st1" d="M674.45,209.67c-3.92,0-6.48-0.99-8.94-3.44l1.91-1.91c2.16,2.16,4.17,2.86,7.1,2.86  c3.81,0,6.15-1.79,6.15-4.83c0-1.36-0.4-2.53-1.25-3.26c-0.84-0.73-1.5-0.95-3.41-1.25l-3.04-0.47c-2.05-0.33-3.66-0.99-4.8-1.98  c-1.32-1.17-1.98-2.78-1.98-4.87c0-4.43,3.18-7.36,8.35-7.36c3.33,0,5.53,0.84,7.76,2.86l-1.8,1.79c-1.61-1.46-3.33-2.23-6.08-2.23  c-3.48,0-5.49,1.94-5.49,4.83c0,1.28,0.36,2.31,1.17,3c0.8,0.7,2.16,1.21,3.52,1.43l2.86,0.44c2.45,0.37,3.66,0.88,4.76,1.83  c1.43,1.21,2.2,3,2.2,5.16C683.46,206.85,679.87,209.67,674.45,209.67"></path>	<path class="st1" d="M720.41,209.45l-2.09-5.9h-11.39l-2.09,5.9h-2.97l9.59-26.08h2.34l9.56,26.08H720.41z M712.69,187.37  l-4.91,13.77h9.74L712.69,187.37z"></path></g></svg>