<?xml version="1.0" encoding="UTF-8"?>
<svg id="Layer_2" data-name="Layer 2" xmlns="http://www.w3.org/2000/svg" viewBox="0 0 109.46 102.79">
  <defs>
    <style>
      .cls-1 {
        fill: #1d3561;
      }

      .cls-2 {
        stroke-linecap: round;
        stroke-linejoin: round;
        stroke-width: 1.44px;
      }

      .cls-2, .cls-3 {
        fill: none;
        stroke: #1d3561;
      }

      .cls-3 {
        stroke-miterlimit: 10;
        stroke-width: .44px;
      }
    </style>
  </defs>
  <g id="Layer_2-2" data-name="Layer 2">
    <g>
      <g>
        <path class="cls-1" d="M22.75,30.32h-.84v1.98h-1.35v-5.51h2.19c1.36,0,2.04.76,2.04,1.77,0,.91-.62,1.76-2.04,1.76ZM22.65,29.26c.54,0,.77-.27.77-.69s-.23-.69-.77-.69h-.74v1.38h.74Z"/>
        <path class="cls-1" d="M27.56,32.36c-1.3,0-2.28-.86-2.28-2.25s1.01-2.25,2.3-2.25,2.3.86,2.3,2.25-1.01,2.25-2.31,2.25ZM27.56,31.2c.48,0,.93-.35.93-1.09s-.44-1.09-.92-1.09-.92.34-.92,1.09.41,1.09.9,1.09Z"/>
        <path class="cls-1" d="M30.58,26.75c0-.41.33-.73.81-.73s.8.32.8.73-.32.72-.8.72-.81-.32-.81-.72ZM30.71,27.92h1.35v4.38h-1.35v-4.38Z"/>
        <path class="cls-1" d="M35.1,27.86c1.11,0,1.89.6,2.12,1.65h-1.44c-.11-.31-.33-.5-.71-.5-.48,0-.82.38-.82,1.11s.33,1.11.82,1.11c.37,0,.59-.18.71-.5h1.44c-.23,1.01-1.01,1.65-2.12,1.65-1.3,0-2.22-.86-2.22-2.25s.92-2.25,2.22-2.25Z"/>
        <path class="cls-1" d="M38.05,26.49h1.35v2.02c.27-.38.75-.64,1.36-.64,1.01,0,1.68.69,1.68,1.87v2.56h-1.35v-2.38c0-.6-.33-.93-.85-.93s-.85.33-.85.93v2.38h-1.35v-5.8Z"/>
        <path class="cls-1" d="M45.49,32.36c-1.3,0-2.23-.86-2.23-2.25s.92-2.25,2.23-2.25,2.2.85,2.2,2.18c0,.12,0,.26-.02.39h-3.06c.05.57.4.84.84.84.38,0,.59-.19.71-.42h1.44c-.21.86-1,1.51-2.1,1.51ZM46.4,25.76v1.04l-1.91.79v-.92l1.91-.91ZM44.61,29.69h1.69c0-.48-.38-.75-.83-.75s-.78.27-.86.75Z"/>
      </g>
      <g>
        <path class="cls-1" d="M20.56,34.9h1.35v5.8h-1.35v-5.8Z"/>
        <path class="cls-1" d="M22.94,37.3l.41-2.1h1.39l-.89,2.1h-.91Z"/>
        <path class="cls-1" d="M25.44,35.15c0-.41.33-.73.81-.73s.8.32.8.73-.32.72-.8.72-.81-.32-.81-.72ZM25.57,36.33h1.35v4.38h-1.35v-4.38Z"/>
        <path class="cls-1" d="M31.07,38.33c0-.6-.33-.93-.85-.93s-.85.33-.85.93v2.38h-1.35v-4.38h1.35v.58c.27-.37.75-.63,1.34-.63,1.02,0,1.7.69,1.7,1.87v2.56h-1.35v-2.38Z"/>
        <path class="cls-1" d="M35.44,36.27c1.11,0,1.89.6,2.12,1.65h-1.44c-.11-.31-.33-.5-.71-.5-.48,0-.82.38-.82,1.11s.33,1.11.82,1.11c.37,0,.59-.18.71-.5h1.44c-.23,1.01-1.01,1.65-2.12,1.65-1.3,0-2.22-.86-2.22-2.25s.92-2.25,2.22-2.25Z"/>
        <path class="cls-1" d="M40.36,40.77c-1.3,0-2.23-.86-2.23-2.25s.92-2.25,2.23-2.25,2.2.85,2.2,2.18c0,.13,0,.26-.02.39h-3.06c.05.57.4.84.84.84.38,0,.59-.19.71-.42h1.44c-.21.86-1,1.51-2.1,1.51ZM39.49,38.1h1.69c0-.48-.38-.75-.83-.75s-.78.27-.86.75Z"/>
        <path class="cls-1" d="M46.47,38.33c0-.6-.33-.93-.85-.93s-.85.33-.85.93v2.38h-1.35v-4.38h1.35v.58c.27-.37.75-.63,1.34-.63,1.02,0,1.7.69,1.7,1.87v2.56h-1.35v-2.38Z"/>
        <path class="cls-1" d="M49.03,37.45h-.54v-1.11h.54v-1.07h1.35v1.07h.89v1.11h-.89v1.76c0,.26.11.37.41.37h.48v1.14h-.69c-.92,0-1.56-.38-1.56-1.52v-1.74Z"/>
        <path class="cls-1" d="M52.06,35.15c0-.41.33-.73.81-.73s.8.32.8.73-.32.72-.8.72-.81-.32-.81-.72ZM52.19,36.33h1.35v4.38h-1.35v-4.38Z"/>
        <path class="cls-1" d="M55.62,36.33l.96,3.12.96-3.12h1.44l-1.57,4.38h-1.67l-1.57-4.38h1.45Z"/>
        <path class="cls-1" d="M61.5,40.77c-1.3,0-2.28-.86-2.28-2.25s1.01-2.25,2.3-2.25,2.3.86,2.3,2.25-1.01,2.25-2.31,2.25ZM61.5,39.61c.48,0,.93-.35.93-1.09s-.44-1.09-.92-1.09-.92.34-.92,1.09.41,1.09.9,1.09Z"/>
        <path class="cls-1" d="M68.18,40.77c-1.3,0-2.23-.86-2.23-2.25s.92-2.25,2.23-2.25,2.2.85,2.2,2.18c0,.13,0,.26-.02.39h-3.06c.05.57.4.84.84.84.38,0,.59-.19.71-.42h1.44c-.21.86-1,1.51-2.1,1.51ZM67.18,34.17l1.91.91v.92l-1.91-.79v-1.04ZM67.3,38.1h1.69c0-.48-.38-.75-.83-.75s-.78.27-.86.75Z"/>
      </g>
      <g>
        <path class="cls-1" d="M20.43,43.56c0-.41.33-.73.81-.73s.8.32.8.73-.32.72-.8.72-.81-.32-.81-.72ZM20.56,44.74h1.35v4.38h-1.35v-4.38Z"/>
        <path class="cls-1" d="M26.06,46.74c0-.6-.33-.93-.85-.93s-.85.33-.85.93v2.38h-1.35v-4.38h1.35v.58c.27-.37.75-.63,1.34-.63,1.02,0,1.7.69,1.7,1.87v2.56h-1.35v-2.38Z"/>
        <path class="cls-1" d="M28.61,45.85h-.49v-1.11h.49v-.13c0-1.14.71-1.71,2.06-1.64v1.14c-.52-.03-.71.13-.71.59v.04h.73v1.11h-.73v3.26h-1.35v-3.26Z"/>
        <path class="cls-1" d="M33.38,49.18c-1.3,0-2.23-.86-2.23-2.25s.92-2.25,2.23-2.25,2.2.85,2.2,2.18c0,.13,0,.26-.02.39h-3.06c.05.57.4.84.84.84.38,0,.59-.19.71-.42h1.44c-.21.86-1,1.51-2.1,1.51ZM32.5,46.5h1.69c0-.48-.38-.75-.83-.75s-.78.27-.86.75Z"/>
        <path class="cls-1" d="M37.78,49.11h-1.35v-4.38h1.35v.73c.31-.46.79-.78,1.39-.78v1.42h-.37c-.64,0-1.01.22-1.01.97v2.03Z"/>
        <path class="cls-1" d="M39.72,43.56c0-.41.33-.73.81-.73s.8.32.8.73-.32.72-.8.72-.81-.32-.81-.72ZM39.84,44.74h1.35v4.38h-1.35v-4.38Z"/>
        <path class="cls-1" d="M44.3,49.18c-1.3,0-2.28-.86-2.28-2.25s1.01-2.25,2.3-2.25,2.3.86,2.3,2.25-1.01,2.25-2.31,2.25ZM44.3,48.02c.48,0,.93-.35.93-1.09s-.44-1.09-.92-1.09-.92.34-.92,1.09.41,1.09.9,1.09Z"/>
        <path class="cls-1" d="M48.81,49.11h-1.35v-4.38h1.35v.73c.31-.46.79-.78,1.39-.78v1.42h-.37c-.64,0-1.01.22-1.01.97v2.03Z"/>
        <path class="cls-1" d="M52.92,49.18c-1.3,0-2.23-.86-2.23-2.25s.92-2.25,2.23-2.25,2.2.85,2.2,2.18c0,.13,0,.26-.02.39h-3.06c.05.57.4.84.84.84.38,0,.59-.19.71-.42h1.44c-.21.86-1,1.51-2.1,1.51ZM52.04,46.5h1.69c0-.48-.38-.75-.83-.75s-.78.27-.86.75Z"/>
        <path class="cls-1" d="M59.2,44.67c.66,0,1.12.3,1.36.68v-.62h1.35v4.38h-1.35v-.62c-.25.38-.71.68-1.37.68-1.08,0-1.94-.88-1.94-2.26s.86-2.24,1.95-2.24ZM59.59,45.84c-.51,0-.97.38-.97,1.07s.46,1.09.97,1.09.97-.38.97-1.08-.45-1.08-.97-1.08Z"/>
      </g>
      <g>
        <path class="cls-1" d="M21.07,53.05h-.78v-1.25h2.19v5.73h-1.41v-4.48Z"/>
        <path class="cls-1" d="M27.51,51.79v1.18h-2.47v1.08c.21-.23.6-.39,1.06-.39,1.26,0,1.74.95,1.74,1.87,0,1.21-.71,1.99-2,1.99s-2.05-.71-2.1-1.7h1.32c.06.3.29.56.73.56.51,0,.74-.37.74-.86s-.26-.79-.75-.79c-.38,0-.6.2-.67.47h-1.31v-3.41h3.7Z"/>
        <path class="cls-1" d="M29.46,57.59c-.48,0-.81-.32-.81-.72s.33-.74.81-.74.8.32.8.74-.33.72-.8.72Z"/>
        <path class="cls-1" d="M33.18,51.68c1.65,0,2.22,1.22,2.22,2.9s-.58,2.92-2.22,2.92-2.23-1.22-2.23-2.92.58-2.9,2.23-2.9ZM33.18,52.94c-.8,0-.9.77-.9,1.65s.1,1.66.9,1.66.89-.75.89-1.66-.09-1.65-.89-1.65Z"/>
        <path class="cls-1" d="M38.51,51.68c1.65,0,2.22,1.22,2.22,2.9s-.58,2.92-2.22,2.92-2.23-1.22-2.23-2.92.58-2.9,2.23-2.9ZM38.51,52.94c-.8,0-.9.77-.9,1.65s.1,1.66.9,1.66.89-.75.89-1.66-.09-1.65-.89-1.65Z"/>
        <path class="cls-1" d="M43.84,51.68c1.65,0,2.22,1.22,2.22,2.9s-.58,2.92-2.22,2.92-2.23-1.22-2.23-2.92.58-2.9,2.23-2.9ZM43.84,52.94c-.8,0-.9.77-.9,1.65s.1,1.66.9,1.66.89-.75.89-1.66-.09-1.65-.89-1.65Z"/>
        <path class="cls-1" d="M47.26,54.54h-.5v-.71h.63c.35-1.14,1.34-1.87,2.65-1.87s2.32.74,2.64,1.93h-1.49c-.23-.46-.65-.69-1.16-.69s-.93.24-1.16.63h1.32v.71h-1.54c0,.07,0,.15,0,.23,0,.07,0,.14,0,.21h1.54v.7h-1.34c.24.42.66.67,1.18.67s.93-.24,1.16-.7h1.49c-.32,1.19-1.31,1.92-2.64,1.92s-2.32-.75-2.66-1.89h-.62v-.7h.5c0-.07,0-.14,0-.21,0-.08,0-.16,0-.23Z"/>
        <path class="cls-1" d="M53.54,56.17h1.39l-1.01,2.54h-.89l.51-2.54Z"/>
        <path class="cls-1" d="M57.35,51.72h1.35v5.8h-1.35v-5.8Z"/>
        <path class="cls-1" d="M59.74,54.12l.41-2.1h1.39l-.89,2.1h-.91Z"/>
        <path class="cls-1" d="M62.23,51.97c0-.41.33-.73.81-.73s.8.32.8.73-.32.72-.8.72-.81-.32-.81-.72ZM62.36,53.15h1.35v4.38h-1.35v-4.38Z"/>
        <path class="cls-1" d="M67.86,55.15c0-.6-.33-.93-.85-.93s-.85.33-.85.93v2.38h-1.35v-4.38h1.35v.58c.27-.37.75-.63,1.34-.63,1.02,0,1.7.69,1.7,1.87v2.56h-1.35v-2.38Z"/>
        <path class="cls-1" d="M70.43,54.26h-.54v-1.11h.54v-1.07h1.35v1.07h.89v1.11h-.89v1.76c0,.26.11.37.41.37h.48v1.14h-.69c-.92,0-1.56-.38-1.56-1.52v-1.74Z"/>
        <path class="cls-1" d="M75.5,57.59c-1.3,0-2.23-.86-2.23-2.25s.92-2.25,2.23-2.25,2.2.85,2.2,2.18c0,.13,0,.26-.02.39h-3.06c.05.57.4.84.84.84.38,0,.59-.19.71-.42h1.44c-.21.86-1,1.51-2.1,1.51ZM74.62,54.91h1.69c0-.48-.38-.75-.83-.75s-.78.27-.86.75Z"/>
        <path class="cls-1" d="M79.91,57.52h-1.35v-4.38h1.35v.73c.31-.46.79-.78,1.39-.78v1.42h-.37c-.64,0-1.01.22-1.01.97v2.03Z"/>
        <path class="cls-1" d="M84.07,57.59c-1.3,0-2.28-.86-2.28-2.25s1.01-2.25,2.3-2.25,2.3.86,2.3,2.25-1.01,2.25-2.31,2.25ZM84.07,56.43c.48,0,.93-.35.93-1.09s-.44-1.09-.92-1.09-.92.34-.92,1.09.41,1.09.9,1.09Z"/>
      </g>
      <g>
        <path class="cls-1" d="M20.43,60.38c0-.41.33-.73.81-.73s.8.32.8.73-.32.72-.8.72-.81-.32-.81-.72ZM20.56,61.56h1.35v4.38h-1.35v-4.38Z"/>
        <path class="cls-1" d="M29.11,63.56c0-.57-.33-.89-.85-.89s-.85.31-.85.89v2.38h-1.35v-2.38c0-.57-.33-.89-.85-.89s-.85.31-.85.89v2.38h-1.35v-4.38h1.35v.55c.26-.35.71-.6,1.29-.6.67,0,1.2.29,1.5.82.29-.46.85-.82,1.49-.82,1.09,0,1.8.69,1.8,1.87v2.56h-1.35v-2.38Z"/>
        <path class="cls-1" d="M34.26,61.49c1.08,0,1.95.86,1.95,2.24s-.86,2.26-1.95,2.26c-.65,0-1.12-.31-1.36-.67v2.7h-1.35v-6.46h1.35v.62c.25-.38.71-.68,1.36-.68ZM33.86,62.66c-.51,0-.97.38-.97,1.08s.46,1.08.97,1.08.97-.39.97-1.09-.46-1.07-.97-1.07Z"/>
        <path class="cls-1" d="M39.09,66c-1.3,0-2.28-.86-2.28-2.25s1.01-2.25,2.3-2.25,2.3.86,2.3,2.25-1.01,2.25-2.31,2.25ZM39.09,64.84c.48,0,.93-.35.93-1.09s-.44-1.09-.92-1.09-.92.34-.92,1.09.41,1.09.9,1.09Z"/>
        <path class="cls-1" d="M43.61,65.93h-1.35v-4.38h1.35v.73c.31-.46.79-.78,1.39-.78v1.42h-.37c-.64,0-1.01.22-1.01.97v2.03Z"/>
        <path class="cls-1" d="M46.03,62.67h-.54v-1.11h.54v-1.07h1.35v1.07h.89v1.11h-.89v1.76c0,.26.11.37.41.37h.48v1.14h-.69c-.92,0-1.56-.38-1.56-1.52v-1.74Z"/>
        <path class="cls-1" d="M51.15,66c-1.3,0-2.28-.86-2.28-2.25s1.01-2.25,2.3-2.25,2.3.86,2.3,2.25-1.01,2.25-2.31,2.25ZM51.15,64.84c.48,0,.93-.35.93-1.09s-.44-1.09-.92-1.09-.92.34-.92,1.09.41,1.09.9,1.09Z"/>
        <path class="cls-1" d="M57.66,66c-1.18,0-1.97-.65-2.04-1.5h1.34c.03.31.31.51.68.51.35,0,.53-.16.53-.35,0-.71-2.41-.2-2.41-1.8,0-.75.64-1.36,1.8-1.36s1.77.63,1.86,1.49h-1.25c-.04-.3-.27-.49-.65-.49-.32,0-.49.13-.49.34,0,.7,2.39.2,2.42,1.83,0,.76-.68,1.33-1.79,1.33Z"/>
        <path class="cls-1" d="M62.07,61.49c.66,0,1.12.3,1.36.68v-.62h1.35v4.38h-1.35v-.62c-.25.38-.71.68-1.37.68-1.08,0-1.94-.88-1.94-2.26s.86-2.24,1.95-2.24ZM62.46,62.66c-.51,0-.97.38-.97,1.07s.46,1.09.97,1.09.97-.38.97-1.08-.45-1.08-.97-1.08Z"/>
        <path class="cls-1" d="M67.25,65.93h-1.35v-4.38h1.35v.73c.31-.46.79-.78,1.39-.78v1.42h-.37c-.64,0-1.01.22-1.01.97v2.03Z"/>
        <path class="cls-1" d="M71.07,61.49c.66,0,1.12.3,1.36.68v-.62h1.35v4.38h-1.35v-.62c-.25.38-.71.68-1.37.68-1.08,0-1.94-.88-1.94-2.26s.86-2.24,1.95-2.24ZM71.47,62.66c-.51,0-.97.38-.97,1.07s.46,1.09.97,1.09.97-.38.97-1.08-.45-1.08-.97-1.08ZM70.63,59.42l1.91.91v.92l-1.91-.79v-1.04Z"/>
      </g>
      <g>
        <path class="cls-1" d="M23.27,69.9c1.08,0,1.95.86,1.95,2.24s-.86,2.26-1.95,2.26c-.65,0-1.12-.31-1.36-.67v2.7h-1.35v-6.46h1.35v.62c.25-.38.71-.68,1.36-.68ZM22.87,71.07c-.51,0-.97.38-.97,1.08s.46,1.08.97,1.08.97-.39.97-1.09-.46-1.07-.97-1.07Z"/>
        <path class="cls-1" d="M27.78,69.9c.66,0,1.12.3,1.36.68v-.62h1.35v4.38h-1.35v-.62c-.25.38-.71.68-1.37.68-1.08,0-1.94-.88-1.94-2.26s.86-2.24,1.95-2.24ZM28.18,71.07c-.51,0-.97.38-.97,1.07s.46,1.09.97,1.09.97-.38.97-1.08-.45-1.08-.97-1.08Z"/>
        <path class="cls-1" d="M33.31,69.9c.65,0,1.12.29,1.36.68v-.62h1.35v4.37c0,1.17-.68,2.17-2.21,2.17-1.31,0-2.17-.66-2.29-1.7h1.34c.09.33.42.54.89.54.51,0,.92-.27.92-1v-.62c-.25.38-.71.69-1.36.69-1.08,0-1.95-.88-1.95-2.26s.86-2.24,1.95-2.24ZM33.7,71.07c-.51,0-.97.38-.97,1.07s.46,1.09.97,1.09.97-.38.97-1.08-.45-1.08-.97-1.08Z"/>
        <path class="cls-1" d="M38.83,69.9c.66,0,1.12.3,1.36.68v-.62h1.35v4.38h-1.35v-.62c-.25.38-.71.68-1.37.68-1.08,0-1.94-.88-1.94-2.26s.86-2.24,1.95-2.24ZM39.22,71.07c-.51,0-.97.38-.97,1.07s.46,1.09.97,1.09.97-.38.97-1.08-.45-1.08-.97-1.08Z"/>
        <path class="cls-1" d="M42.89,71.08h-.54v-1.11h.54v-1.07h1.35v1.07h.89v1.11h-.89v1.76c0,.26.11.37.41.37h.48v1.14h-.69c-.92,0-1.56-.38-1.56-1.52v-1.74Z"/>
        <path class="cls-1" d="M48,74.4c-1.3,0-2.28-.86-2.28-2.25s1.01-2.25,2.3-2.25,2.3.86,2.3,2.25-1.01,2.25-2.31,2.25ZM48,73.24c.48,0,.93-.35.93-1.09s-.44-1.09-.92-1.09-.92.34-.92,1.09.41,1.09.9,1.09Z"/>
        <path class="cls-1" d="M54.52,74.4c-1.18,0-1.97-.65-2.04-1.5h1.34c.03.31.31.51.68.51.35,0,.53-.16.53-.35,0-.71-2.41-.2-2.41-1.8,0-.75.64-1.36,1.8-1.36s1.77.63,1.86,1.49h-1.25c-.04-.3-.27-.49-.65-.49-.32,0-.49.13-.49.34,0,.7,2.39.2,2.42,1.83,0,.76-.68,1.33-1.79,1.33Z"/>
        <path class="cls-1" d="M61.58,74.34h-1.35v-.6c-.27.38-.74.64-1.34.64-1.02,0-1.71-.7-1.71-1.87v-2.56h1.35v2.38c0,.6.34.93.85.93s.85-.33.85-.93v-2.38h1.35v4.38Z"/>
        <path class="cls-1" d="M65.4,69.9c1.09,0,1.95.86,1.95,2.24s-.86,2.26-1.95,2.26c-.65,0-1.12-.29-1.36-.67v.61h-1.35v-5.8h1.35v2.05c.25-.39.73-.68,1.36-.68ZM65,71.07c-.51,0-.97.38-.97,1.08s.46,1.08.97,1.08.97-.39.97-1.09-.46-1.07-.97-1.07Z"/>
        <path class="cls-1" d="M68.07,68.79c0-.41.33-.73.81-.73s.8.32.8.73-.32.72-.8.72-.81-.32-.81-.72ZM68.2,69.97h1.35v4.38h-1.35v-4.38Z"/>
        <path class="cls-1" d="M70.84,71.08h-.54v-1.11h.54v-1.07h1.35v1.07h.89v1.11h-.89v1.76c0,.26.11.37.41.37h.48v1.14h-.69c-.92,0-1.56-.38-1.56-1.52v-1.74Z"/>
        <path class="cls-1" d="M75.96,74.4c-1.3,0-2.28-.86-2.28-2.25s1.01-2.25,2.3-2.25,2.3.86,2.3,2.25-1.01,2.25-2.31,2.25ZM75.96,73.24c.48,0,.93-.35.93-1.09s-.44-1.09-.92-1.09-.92.34-.92,1.09.41,1.09.9,1.09Z"/>
      </g>
      <g>
        <path class="cls-1" d="M22.24,78.31c.59,0,1.09.27,1.36.67v-2.03h1.35v5.8h-1.35v-.63c-.25.4-.71.69-1.36.69-1.08,0-1.95-.88-1.95-2.26s.86-2.24,1.95-2.24ZM22.63,79.48c-.51,0-.97.38-.97,1.07s.46,1.09.97,1.09.97-.38.97-1.08-.45-1.08-.97-1.08Z"/>
        <path class="cls-1" d="M27.76,78.31c.66,0,1.12.3,1.36.68v-.62h1.35v4.38h-1.35v-.62c-.25.38-.71.68-1.37.68-1.08,0-1.94-.88-1.94-2.26s.86-2.24,1.95-2.24ZM28.16,79.48c-.51,0-.97.38-.97,1.07s.46,1.09.97,1.09.97-.38.97-1.08-.45-1.08-.97-1.08Z"/>
        <path class="cls-1" d="M31.59,76.94h1.35v5.8h-1.35v-5.8Z"/>
        <path class="cls-1" d="M40.79,78.98h-1.5c-.21-.37-.59-.56-1.09-.56-.87,0-1.45.61-1.45,1.57,0,1.02.59,1.62,1.56,1.62.67,0,1.14-.35,1.35-.97h-1.72v-.99h2.95v1.25c-.29.95-1.21,1.9-2.68,1.9-1.66,0-2.83-1.15-2.83-2.8s1.16-2.81,2.83-2.81c1.33,0,2.3.67,2.59,1.8Z"/>
        <path class="cls-1" d="M43.79,82.8c-1.2,0-2.13-.59-2.17-1.7h1.44c.04.42.31.63.69.63s.65-.2.65-.52c0-1.02-2.78-.47-2.76-2.42,0-1.04.86-1.62,2.03-1.62s2.03.6,2.08,1.65h-1.47c-.02-.35-.28-.56-.64-.57-.32,0-.57.16-.57.5,0,.96,2.75.53,2.75,2.37,0,.93-.73,1.69-2.03,1.69Z"/>
        <path class="cls-1" d="M50.23,78.31h-2.05v1.11h1.81v1.04h-1.81v1.21h2.05v1.07h-3.41v-5.51h3.41v1.07Z"/>
        <path class="cls-1" d="M52.04,82.81c-.48,0-.81-.32-.81-.72s.33-.74.81-.74.8.32.8.74-.33.72-.8.72Z"/>
      </g>
      <g>
        <path class="cls-1" d="M58.76,21.79c-1.07,0-1.94.85-1.94,1.89s.87,1.89,1.94,1.89,1.94-.85,1.94-1.89-.87-1.89-1.94-1.89"/>
        <path class="cls-3" d="M58.76,21.79c-1.07,0-1.94.85-1.94,1.89s.87,1.89,1.94,1.89,1.94-.85,1.94-1.89-.87-1.89-1.94-1.89Z"/>
        <path class="cls-1" d="M100.09,3.47c-.48.05-.82.47-.77.93.05.46.49.8.96.74s.82-.47.77-.93c-.05-.46-.49-.8-.96-.74"/>
        <path class="cls-3" d="M100.09,3.47c-.48.05-.82.47-.77.93.05.46.49.8.96.74s.82-.47.77-.93c-.05-.46-.49-.8-.96-.74Z"/>
        <path class="cls-1" d="M107.62,13.59l-3.44,1.85s-.1.05-.15.07c-.02,0-.04.02-.06.02-.09.03-.18.05-.28.06-.47.05-.95-.15-1.22-.54-.02-.03-.04-.07-.06-.1l-.4-.7-5.12-9.01-.2-.36c-.09-.16-.14-.33-.16-.49-.05-.49.2-.98.67-1.23l3.44-1.85s.1-.05.15-.07c.02,0,.04-.02.06-.02.09-.03.18-.05.28-.06.14-.02.29,0,.42.02.02,0,.03,0,.05,0,0,0,.01,0,.02,0,0,0,.02,0,.03,0h0s0,0,0,0,0,0,0,0c.01,0,.02,0,.03.01h0s0,0,0,0c0,0,0,0,0,0,.01,0,.03,0,.04.01.15.05.29.13.41.24.04.03.07.06.1.1.03.04.06.07.09.11.03.04.06.08.08.12l5.72,10.07c.35.61.12,1.38-.51,1.72M101.2,14.7l-5.02,2.86h-.02s-.1.07-.1.07c-.08.06-.16.12-.25.18-.03.02-.07.05-.1.07-.07.05-.14.09-.21.13-.16.1-.33.2-.51.29-.73.38-1.49.63-2.26.75-.47.07-.93.18-1.39.29-.05.01-.1.02-.15.04-.08.02-.16.04-.24.05l-.7.15-.24.05-.11.02-2.38.5-.1.02-.19.04-.6.13-1.04.22-5.53,1.17c-.27,0-.52.06-.75.16l-2.95.62s-.02,0-.03,0c-.02,0-.91.25-1.82.15-.65-.07-1.31-.31-1.67-.94,0,0,0-.01,0-.02-.04-.1-.16-.43-.2-.82,0-.04,0-.08,0-.12,0-.01,0-.03,0-.04,0-.02,0-.05,0-.07,0-.02,0-.05,0-.07,0-.15.03-.3.08-.44.02-.07.05-.14.08-.2.01-.03.03-.05.04-.08,0-.02.02-.03.03-.05.01-.01.02-.03.03-.05,0,0,.01-.02.02-.02.01-.02.02-.03.04-.05.02-.02.04-.05.06-.07.01-.01.03-.03.04-.04,0,0,.01-.01.02-.02.02-.01.03-.03.05-.04.1-.09.23-.18.37-.25.19-.1.42-.18.68-.25,0,0,0,0,0,0l.06-.02,2.64-.68,4.82-1.24.6-.15,1.32-.34s.07-.02.1-.04c.08-.04.15-.11.19-.19,0-.01.01-.02.02-.03,0-.02.02-.04.02-.05,0-.01,0-.02.01-.04,0-.01,0-.02,0-.04,0-.01,0-.02,0-.04,0-.05,0-.11,0-.17l-.25-1.02-.04-.16c-.1-.39-.36-.73-.72-.92l-2.47-1.33c-.52-.28-1.11-.4-1.7-.35l-6.12.53c-.41.04-.81.15-1.17.35l-3.19,1.72-.3.16h-7.25l12.69-8.6c.22-.15.45-.3.69-.43.05-.03.1-.06.16-.09.26-.15.53-.28.8-.41.05-.03.11-.05.16-.07.03-.01.05-.02.08-.04.05-.02.11-.05.17-.07.03-.01.07-.03.1-.04.05-.02.1-.04.15-.06.12-.05.24-.09.36-.13.05-.02.1-.04.15-.05.06-.02.11-.04.17-.06.06-.02.11-.04.17-.05.09-.03.17-.05.26-.08.06-.02.11-.03.17-.05.15-.04.29-.07.44-.11.06-.01.12-.03.18-.04.38-.08.77-.14,1.16-.18.71-.08,1.43-.09,2.15-.04l8.46,1.27h.08s2.54.39,2.54.39c.37.06.75.09,1.13.11h0c.23.01.45.02.68.02.05,0,.09,0,.14,0,.06,0,.11,0,.17,0,.03,0,.06,0,.09,0,.03,0,.06,0,.08,0,.15-.02.29-.04.44-.08.05-.01.1-.02.14-.04.02,0,.05-.01.07-.02.05-.01.09-.03.14-.04.02,0,.05-.02.07-.02.04-.01.08-.03.12-.05.05-.02.1-.04.15-.06l.57-.26,5.16,9.09ZM69.93,15.01l2-1.08c.25-.13.52-.21.8-.24l6.12-.53c.4-.04.8.05,1.16.24l2.47,1.33c.11.06.2.16.25.28h-12.78ZM67.46,22.68v-.92c0-.66.19-1.19.57-1.58.38-.39.89-.58,1.52-.58.57,0,1.04.16,1.41.47.37.31.6.74.68,1.27v.02c0,.07-.05.11-.13.13l-1.1.13h-.02c-.07,0-.11-.04-.13-.13-.02-.22-.09-.4-.21-.54-.12-.13-.29-.2-.49-.2s-.38.08-.5.25c-.13.17-.19.39-.19.66v1.01s.02.06.06.06h1.8s.08.01.11.04c.02.03.03.07.01.12l-.16.44c-.02.08-.08.11-.16.11h-1.6s-.06.02-.06.06v.46s.02.06.06.06h1.43s.08.01.1.04c.02.03.02.07,0,.12l-.16.45c-.02.08-.08.12-.16.12h-1.22s-.06.02-.06.06v.98c0,.27.06.49.19.66.13.17.3.25.5.25.19,0,.35-.06.47-.19.12-.13.2-.3.22-.52.02-.09.07-.14.16-.13l1.09.14s.08.02.1.05c.02.03.03.06.02.11-.09.53-.31.95-.68,1.25-.37.3-.83.45-1.38.45-.63,0-1.14-.2-1.52-.6-.38-.4-.57-.92-.57-1.58v-.88s-.02-.06-.06-.06h-.6s-.07-.01-.1-.04c-.03-.03-.04-.06-.04-.1v-.45s.01-.07.04-.1c.03-.03.06-.04.1-.04h.6s.06-.02.06-.06v-.46s-.02-.06-.06-.06h-.6s-.07-.01-.1-.04-.04-.06-.04-.1v-.44s.01-.07.04-.1c.03-.03.06-.04.1-.04h.6s.06-.02.06-.06M82.14,16.02h0s-8.01,2.08-8.01,2.08l-.21.05c-.1.03-.21.05-.3.09-.04.01-.08.02-.12.04-.17.06-.33.13-.48.21-.09.05-.18.1-.27.16-.03.02-.05.03-.07.05,0,0,0,0-.01,0-.04.03-.07.05-.11.08-.03.03-.06.05-.09.08-.04.04-.08.08-.12.12,0,0-.01.01-.02.02-.1.1-.19.21-.27.33-.77-.44-1.67-.7-2.63-.7-2.85,0-5.16,2.25-5.16,5.02s2.31,5.02,5.16,5.02,5.16-2.25,5.16-5.02v-.04c.09,0,.19.01.28.01.85,0,1.57-.17,1.69-.21l1.66-.35c-.06.18-.09.37-.09.58,0,1.05.88,1.9,1.96,1.9s1.96-.85,1.96-1.9c0-.49-.19-.94-.51-1.28l4.05-.86v6.44h0s-.04,0-.06,0c-.02,0-.03,0-.05,0-.06,0-.11,0-.17,0-.01,0-.03,0-.04,0-1.75.13-3.14,1.55-3.14,3.29v.03h-25.51s0-.05,0-.07c0-1.81-1.5-3.29-3.36-3.3v-8.52h.05s.05,0,.08,0c.03,0,.06,0,.08,0,1.76-.12,3.15-1.55,3.15-3.29,0-.02,0-.05,0-.07h25.51ZM108.96,11.42l-5.72-10.07c-.22-.39-.55-.69-.95-.89-.39-.19-.83-.27-1.27-.22-.29.03-.57.12-.83.26l-3.44,1.85c-.52.28-.91.75-1.07,1.31-.11.37-.12.76-.03,1.12l-.58.26c-.27.12-.56.2-.85.23-.08,0-.17.01-.25.02-.04,0-.09,0-.13,0-.21,0-.42,0-.63-.02h-.01c-.34-.02-.69-.05-1.02-.11l-2.54-.38h-.08s-8.46-1.28-8.46-1.28c-.02,0-.05,0-.07,0-.77-.05-1.55-.04-2.33.04-2.08.23-4.09.96-5.8,2.12l-13.8,9.35h-6.87v17.29h34.41v-11.01l3.69-.78.85-.18c.08-.02.17-.04.27-.06.05-.01.11-.03.16-.04.01,0,.02,0,.03,0,.11-.03.21-.05.32-.08.35-.08.67-.14.96-.19.89-.14,1.75-.43,2.55-.85.21-.11.42-.23.62-.36.08-.05.16-.1.23-.15.01,0,.02-.01.03-.02.09-.06.18-.12.26-.19l5.07-2.88c.22.33.52.59.88.77.39.19.83.27,1.27.22.29-.03.57-.12.83-.26l3.44-1.85c.52-.28.91-.75,1.07-1.31.17-.56.1-1.15-.19-1.66"/>
        <path class="cls-3" d="M107.62,13.59l-3.44,1.85s-.1.05-.15.07c-.02,0-.04.02-.06.02-.09.03-.18.05-.28.06-.47.05-.95-.15-1.22-.54-.02-.03-.04-.07-.06-.1l-.4-.7-5.12-9.01-.2-.36c-.09-.16-.14-.33-.16-.49-.05-.49.2-.98.67-1.23l3.44-1.85s.1-.05.15-.07c.02,0,.04-.02.06-.02.09-.03.18-.05.28-.06.14-.02.29,0,.42.02.02,0,.03,0,.05,0,0,0,.01,0,.02,0,0,0,.02,0,.03,0h0s0,0,0,0,0,0,0,0c.01,0,.02,0,.03.01h0s0,0,0,0c0,0,0,0,0,0,.01,0,.03,0,.04.01.15.05.29.13.41.24.04.03.07.06.1.1.03.04.06.07.09.11.03.04.06.08.08.12l5.72,10.07c.35.61.12,1.38-.51,1.72ZM101.2,14.7l-5.02,2.86h-.02s-.1.07-.1.07c-.08.06-.16.12-.25.18-.03.02-.07.05-.1.07-.07.05-.14.09-.21.13-.16.1-.33.2-.51.29-.73.38-1.49.63-2.26.75-.47.07-.93.18-1.39.29-.05.01-.1.02-.15.04-.08.02-.16.04-.24.05l-.7.15-.24.05-.11.02-2.38.5-.1.02-.19.04-.6.13-1.04.22-5.53,1.17c-.27,0-.52.06-.75.16l-2.95.62s-.02,0-.03,0c-.02,0-.91.25-1.82.15-.65-.07-1.31-.31-1.67-.94,0,0,0-.01,0-.02-.04-.1-.16-.43-.2-.82,0-.04,0-.08,0-.12,0-.01,0-.03,0-.04,0-.02,0-.05,0-.07,0-.02,0-.05,0-.07,0-.15.03-.3.08-.44.02-.07.05-.14.08-.2.01-.03.03-.05.04-.08,0-.02.02-.03.03-.05.01-.01.02-.03.03-.05,0,0,.01-.02.02-.02.01-.02.02-.03.04-.05.02-.02.04-.05.06-.07.01-.01.03-.03.04-.04,0,0,.01-.01.02-.02.02-.01.03-.03.05-.04.1-.09.23-.18.37-.25.19-.1.42-.18.68-.25,0,0,0,0,0,0l.06-.02,2.64-.68,4.82-1.24.6-.15,1.32-.34s.07-.02.1-.04c.08-.04.15-.11.19-.19,0-.01.01-.02.02-.03,0-.02.02-.04.02-.05,0-.01,0-.02.01-.04,0-.01,0-.02,0-.04,0-.01,0-.02,0-.04,0-.05,0-.11,0-.17l-.25-1.02-.04-.16c-.1-.39-.36-.73-.72-.92l-2.47-1.33c-.52-.28-1.11-.4-1.7-.35l-6.12.53c-.41.04-.81.15-1.17.35l-3.19,1.72-.3.16h-7.25l12.69-8.6c.22-.15.45-.3.69-.43.05-.03.1-.06.16-.09.26-.15.53-.28.8-.41.05-.03.11-.05.16-.07.03-.01.05-.02.08-.04.05-.02.11-.05.17-.07.03-.01.07-.03.1-.04.05-.02.1-.04.15-.06.12-.05.24-.09.36-.13.05-.02.1-.04.15-.05.06-.02.11-.04.17-.06.06-.02.11-.04.17-.05.09-.03.17-.05.26-.08.06-.02.11-.03.17-.05.15-.04.29-.07.44-.11.06-.01.12-.03.18-.04.38-.08.77-.14,1.16-.18.71-.08,1.43-.09,2.15-.04l8.46,1.27h.08s2.54.39,2.54.39c.37.06.75.09,1.13.11h0c.23.01.45.02.68.02.05,0,.09,0,.14,0,.06,0,.11,0,.17,0,.03,0,.06,0,.09,0,.03,0,.06,0,.08,0,.15-.02.29-.04.44-.08.05-.01.1-.02.14-.04.02,0,.05-.01.07-.02.05-.01.09-.03.14-.04.02,0,.05-.02.07-.02.04-.01.08-.03.12-.05.05-.02.1-.04.15-.06l.57-.26,5.16,9.09ZM69.93,15.01l2-1.08c.25-.13.52-.21.8-.24l6.12-.53c.4-.04.8.05,1.16.24l2.47,1.33c.11.06.2.16.25.28h-12.78ZM67.46,22.68v-.92c0-.66.19-1.19.57-1.58.38-.39.89-.58,1.52-.58.57,0,1.04.16,1.41.47.37.31.6.74.68,1.27v.02c0,.07-.05.11-.13.13l-1.1.13h-.02c-.07,0-.11-.04-.13-.13-.02-.22-.09-.4-.21-.54-.12-.13-.29-.2-.49-.2s-.38.08-.5.25c-.13.17-.19.39-.19.66v1.01s.02.06.06.06h1.8s.08.01.11.04c.02.03.03.07.01.12l-.16.44c-.02.08-.08.11-.16.11h-1.6s-.06.02-.06.06v.46s.02.06.06.06h1.43s.08.01.1.04c.02.03.02.07,0,.12l-.16.45c-.02.08-.08.12-.16.12h-1.22s-.06.02-.06.06v.98c0,.27.06.49.19.66.13.17.3.25.5.25.19,0,.35-.06.47-.19.12-.13.2-.3.22-.52.02-.09.07-.14.16-.13l1.09.14s.08.02.1.05c.02.03.03.06.02.11-.09.53-.31.95-.68,1.25-.37.3-.83.45-1.38.45-.63,0-1.14-.2-1.52-.6-.38-.4-.57-.92-.57-1.58v-.88s-.02-.06-.06-.06h-.6s-.07-.01-.1-.04c-.03-.03-.04-.06-.04-.1v-.45s.01-.07.04-.1c.03-.03.06-.04.1-.04h.6s.06-.02.06-.06v-.46s-.02-.06-.06-.06h-.6s-.07-.01-.1-.04-.04-.06-.04-.1v-.44s.01-.07.04-.1c.03-.03.06-.04.1-.04h.6s.06-.02.06-.06ZM82.14,16.02h0s-8.01,2.08-8.01,2.08l-.21.05c-.1.03-.21.05-.3.09-.04.01-.08.02-.12.04-.17.06-.33.13-.48.21-.09.05-.18.1-.27.16-.03.02-.05.03-.07.05,0,0,0,0-.01,0-.04.03-.07.05-.11.08-.03.03-.06.05-.09.08-.04.04-.08.08-.12.12,0,0-.01.01-.02.02-.1.1-.19.21-.27.33-.77-.44-1.67-.7-2.63-.7-2.85,0-5.16,2.25-5.16,5.02s2.31,5.02,5.16,5.02,5.16-2.25,5.16-5.02v-.04c.09,0,.19.01.28.01.85,0,1.57-.17,1.69-.21l1.66-.35c-.06.18-.09.37-.09.58,0,1.05.88,1.9,1.96,1.9s1.96-.85,1.96-1.9c0-.49-.19-.94-.51-1.28l4.05-.86v6.44h0s-.04,0-.06,0c-.02,0-.03,0-.05,0-.06,0-.11,0-.17,0-.01,0-.03,0-.04,0-1.75.13-3.14,1.55-3.14,3.29v.03h-25.51s0-.05,0-.07c0-1.81-1.5-3.29-3.36-3.3v-8.52h.05s.05,0,.08,0c.03,0,.06,0,.08,0,1.76-.12,3.15-1.55,3.15-3.29,0-.02,0-.05,0-.07h25.51ZM108.96,11.42l-5.72-10.07c-.22-.39-.55-.69-.95-.89-.39-.19-.83-.27-1.27-.22-.29.03-.57.12-.83.26l-3.44,1.85c-.52.28-.91.75-1.07,1.31-.11.37-.12.76-.03,1.12l-.58.26c-.27.12-.56.2-.85.23-.08,0-.17.01-.25.02-.04,0-.09,0-.13,0-.21,0-.42,0-.63-.02h-.01c-.34-.02-.69-.05-1.02-.11l-2.54-.38h-.08s-8.46-1.28-8.46-1.28c-.02,0-.05,0-.07,0-.77-.05-1.55-.04-2.33.04-2.08.23-4.09.96-5.8,2.12l-13.8,9.35h-6.87v17.29h34.41v-11.01l3.69-.78.85-.18c.08-.02.17-.04.27-.06.05-.01.11-.03.16-.04.01,0,.02,0,.03,0,.11-.03.21-.05.32-.08.35-.08.67-.14.96-.19.89-.14,1.75-.43,2.55-.85.21-.11.42-.23.62-.36.08-.05.16-.1.23-.15.01,0,.02-.01.03-.02.09-.06.18-.12.26-.19l5.07-2.88c.22.33.52.59.88.77.39.19.83.27,1.27.22.29-.03.57-.12.83-.26l3.44-1.85c.52-.28.91-.75,1.07-1.31.17-.56.1-1.15-.19-1.66Z"/>
      </g>
      <path class="cls-2" d="M56.84,9.52c-.58-.12-1.16-.23-1.75-.32-4.39-.72-8.87-.81-13.32-.27C16.19,12.07-2.07,35.44,1.07,61.02c3.14,25.58,26.51,43.84,52.09,40.7,25.58-3.14,43.84-26.51,40.7-52.09-.43-3.54-1.27-7.02-2.48-10.34"/>
    </g>
  </g>
</svg>