<?xml version="1.0" encoding="UTF-8"?>
<svg id="Layer_2" data-name="Layer 2" xmlns="http://www.w3.org/2000/svg" viewBox="0 0 218.78 78.12">
  <defs>
    <style>
      .cls-1 {
        stroke-width: .99px;
      }

      .cls-1, .cls-2 {
        fill: none;
        stroke: #f15648;
      }

      .cls-2 {
        stroke-width: 1.32px;
      }

      .cls-3 {
        fill: #fff;
      }

      .cls-4 {
        fill: #f15648;
      }
    </style>
  </defs>
  <g id="Layer_2-2" data-name="Layer 2">
    <g>
      <g>
        <path class="cls-3" d="M39.06,77.46c21.21,0,38.4-17.19,38.4-38.4S60.27.66,39.06.66.66,17.85.66,39.06s17.19,38.4,38.4,38.4"/>
        <path class="cls-2" d="M39.06,77.46c21.21,0,38.4-17.19,38.4-38.4S60.27.66,39.06.66.66,17.85.66,39.06s17.19,38.4,38.4,38.4Z"/>
      </g>
      <g>
        <path class="cls-4" d="M35.04,28.21c.09.09.14.22.14.39v4.7c0,.26-.08.48-.25.67l-3.65,3.79s-.07.1-.05.16c.01.06.06.09.16.09,1.09.09,1.99.61,2.71,1.56.72.95,1.08,2.08,1.08,3.39v3.65c0,1.22-.31,2.3-.94,3.26-.63.96-1.5,1.71-2.61,2.25s-2.38.81-3.79.81c-1.49,0-2.81-.27-3.97-.81-1.16-.54-2.06-1.29-2.71-2.25-.65-.96-.98-2.05-.98-3.26v-1.58c0-.16.05-.29.14-.39.09-.09.22-.14.39-.14h5.6c.17,0,.29.05.39.14.09.09.14.22.14.39v.95c0,.4.09.71.27.95.18.23.42.35.73.35s.55-.12.74-.37c.19-.25.28-.56.28-.93v-3.97c0-.37-.09-.68-.28-.93-.19-.25-.44-.37-.74-.37-.38,0-.79.2-1.24.6-.17.12-.3.18-.39.18-.12,0-.24-.06-.35-.18l-2.84-2.91c-.09-.09-.14-.21-.14-.35,0-.16.06-.29.18-.39l3.9-3.72c.07-.05.09-.1.07-.16-.02-.06-.08-.09-.18-.09h-5.57c-.17,0-.3-.05-.39-.14-.09-.09-.14-.22-.14-.39v-4.56c0-.16.05-.29.14-.39.09-.09.22-.14.39-.14h13.37c.17,0,.29.05.39.14Z"/>
        <path class="cls-4" d="M37.76,51.99c-.63-.62-.94-1.41-.94-2.37s.31-1.78.94-2.39c.63-.61,1.42-.91,2.39-.91s1.77.3,2.39.91c.63.61.94,1.4.94,2.39s-.32,1.72-.96,2.35c-.64.63-1.43.95-2.38.95s-1.77-.31-2.39-.93Z"/>
        <path class="cls-4" d="M47.01,52.11c-1.15-.63-2.03-1.53-2.66-2.69-.63-1.16-.94-2.5-.94-4.02v-10.11c0-1.52.31-2.86.94-4.02.63-1.16,1.51-2.05,2.66-2.69,1.15-.63,2.46-.95,3.95-.95s2.84.32,3.99.95c1.15.63,2.03,1.53,2.66,2.69s.94,2.5.94,4.02v10.11c0,1.52-.31,2.86-.94,4.02s-1.51,2.05-2.66,2.69c-1.15.63-2.48.95-3.99.95s-2.81-.32-3.95-.95ZM51.63,46.97c.17-.29.25-.68.25-1.18v-10.88c0-.49-.08-.88-.25-1.18-.17-.29-.39-.44-.67-.44-.26,0-.47.15-.64.44-.17.29-.25.68-.25,1.18v10.88c0,.49.08.88.25,1.18.17.29.38.44.64.44.28,0,.51-.15.67-.44Z"/>
      </g>
      <path class="cls-4" d="M7.01,37.42s-.03-.04-.03-.07v-1.22s0-.05.02-.07.04-.03.07-.03l5.87-.04s.05.01.08.03c.02.02.03.04.03.07v1.17c0,.06-.01.1-.06.12l-3.31,2s-.02.02-.02.04.02.02.04.02l3.27-.03s.05,0,.07.03c.02.02.03.04.03.07v1.22s0,.05-.02.07c-.02.02-.04.03-.07.03l-5.87.04s-.05-.01-.07-.03c-.02-.02-.03-.04-.03-.07v-1.18c0-.06.02-.1.06-.12l3.3-1.99s.02-.02.02-.03c0-.01-.02-.02-.04-.02l-3.26.03s-.05,0-.07-.03Z"/>
      <path class="cls-4" d="M13.32,34.34c-.24.31-.54.52-.89.65-.35.13-.74.15-1.15.07l-3.84-.75s-.05-.02-.07-.04c-.02-.02-.02-.05-.02-.08l.23-1.2s.02-.05.04-.07c.02-.02.05-.02.08-.02l3.84.75c.27.05.5.02.69-.11s.31-.31.36-.57c.05-.25,0-.47-.12-.66-.13-.19-.33-.31-.6-.36l-3.84-.75s-.05-.02-.07-.04c-.02-.02-.02-.05-.02-.08l.23-1.2s.02-.05.04-.07c.02-.02.05-.02.08-.02l3.84.75c.42.08.76.24,1.05.49.28.25.48.56.58.93.11.37.12.78.03,1.23-.09.45-.25.82-.49,1.13Z"/>
      <path class="cls-4" d="M14.53,29.58c-.31.25-.66.41-1.05.46-.39.05-.79,0-1.21-.18l-1.61-.65c-.41-.17-.73-.4-.97-.71-.24-.31-.38-.66-.42-1.06-.04-.4.03-.81.2-1.24.18-.43.42-.77.73-1.03.31-.26.66-.41,1.04-.47s.79,0,1.19.17l1.61.65c.42.17.75.41.99.72s.38.67.42,1.06c.04.4-.03.82-.2,1.25-.18.43-.42.77-.72,1.03ZM14.12,27.37c-.1-.22-.29-.39-.57-.51l-1.67-.68c-.27-.11-.53-.12-.76-.04-.23.09-.4.26-.5.51-.1.25-.1.49,0,.71.11.22.29.39.57.51l1.67.68c.28.11.53.12.76.04.23-.09.4-.26.5-.51.1-.25.1-.5,0-.72Z"/>
      <path class="cls-4" d="M17.12,24.75l-5.87-1.75h-.03s-.06-.09-.02-.14l.72-1.1c.04-.05.08-.07.14-.05l3.85,1.33s.03,0,.04,0c0,0,0-.02,0-.04l-2.78-2.97s-.04-.1,0-.15l.71-1.08s.04-.04.07-.04c.03,0,.05,0,.08.04l3.95,4.69s.04.09.01.14l-.71,1.09s-.08.06-.13.05Z"/>
      <path class="cls-4" d="M19.68,21.21c-.38.12-.76.13-1.14.04-.38-.1-.73-.3-1.06-.62l-1.25-1.21c-.32-.31-.53-.65-.64-1.02-.11-.38-.11-.75,0-1.14.11-.38.33-.74.65-1.08.32-.33.68-.56,1.06-.69.38-.12.76-.14,1.14-.04s.73.3,1.04.6l1.25,1.21c.33.32.54.66.65,1.04.11.38.11.76,0,1.15-.11.39-.33.75-.65,1.08-.32.33-.68.56-1.06.68ZM20.12,19c-.01-.25-.12-.47-.34-.68l-1.29-1.25c-.21-.21-.44-.31-.69-.32-.25,0-.47.09-.66.29-.19.19-.28.41-.26.66.01.25.12.48.34.68l1.29,1.25c.22.21.45.32.69.32s.46-.09.65-.29c.19-.2.28-.42.27-.67Z"/>
      <path class="cls-4" d="M25.45,16.43c-.39.01-.75-.08-1.08-.27-.33-.19-.6-.48-.81-.86l-.91-1.64c-.21-.37-.31-.75-.3-1.13,0-.38.12-.73.33-1.06.21-.33.52-.6.92-.82s.79-.35,1.18-.37c.38-.02.74.06,1.06.24s.58.44.78.8c.01.03.02.05,0,.07,0,.03-.02.04-.05.06l-1.03.66c-.06.03-.11.02-.13-.03-.13-.24-.31-.39-.53-.45s-.45-.03-.67.1c-.23.13-.38.3-.44.53-.06.22-.02.45.11.68l.96,1.72c.13.23.3.38.52.44.22.06.45.03.68-.1.23-.13.38-.3.44-.52.06-.22.03-.45-.1-.68-.03-.05-.02-.1.04-.13l1.1-.54s.05-.02.08-.01c.03,0,.04.02.05.04.2.36.29.72.28,1.09-.02.37-.13.71-.35,1.03-.22.32-.53.59-.93.81s-.8.34-1.19.35Z"/>
      <path class="cls-4" d="M29.99,14.2c-.39-.07-.73-.24-1.02-.51-.29-.27-.5-.62-.64-1.04l-.53-1.65c-.13-.42-.16-.82-.08-1.2.08-.38.26-.72.54-1s.64-.5,1.08-.64c.44-.14.86-.18,1.26-.11.39.07.74.24,1.03.5.29.26.5.6.63,1.02l.53,1.65c.14.43.17.84.08,1.22-.08.38-.26.72-.54,1.01s-.64.5-1.08.64c-.44.14-.86.18-1.25.1ZM31.43,12.46c.11-.22.11-.48.02-.76l-.55-1.71c-.09-.28-.24-.48-.46-.61s-.46-.14-.72-.06c-.26.08-.44.23-.54.46-.11.22-.11.48-.02.76l.55,1.71c.09.29.25.49.46.61.21.12.45.14.71.06.26-.08.45-.24.55-.46Z"/>
      <path class="cls-4" d="M36.61,6.86s.04-.04.07-.04l1.21-.13s.05,0,.08.02c.02.02.04.04.04.07l.63,5.84s0,.05-.02.08c-.02.02-.04.04-.07.04l-1.16.12c-.06,0-.1-.01-.13-.06l-2.32-3.09s-.03-.02-.04-.02c-.01,0-.02.02-.01.04l.36,3.25s0,.05-.02.08c-.02.02-.04.04-.07.04l-1.21.13s-.05,0-.08-.02c-.02-.02-.04-.04-.04-.07l-.63-5.84s0-.06.02-.08c.02-.02.04-.04.07-.04l1.17-.13c.06,0,.1.01.13.06l2.31,3.08s.03.02.04.02.02-.02.01-.04l-.36-3.24s0-.05.02-.08Z"/>
      <path class="cls-4" d="M44.25,7.11s.03.05.02.08l-.1,1.03s-.02.05-.04.07c-.02.02-.05.03-.08.02l-1.5-.14s-.04,0-.05.04l-.44,4.67s-.01.05-.04.07c-.02.02-.04.03-.07.02l-1.22-.11s-.05-.02-.07-.04c-.02-.02-.03-.05-.02-.08l.44-4.67s0-.04-.04-.04l-1.45-.14s-.05-.01-.07-.04c-.02-.02-.03-.05-.02-.08l.1-1.03s.02-.05.04-.07c.02-.02.05-.03.07-.02l4.45.42s.05.02.07.04Z"/>
      <path class="cls-4" d="M44.81,13.31c-.3-.27-.5-.59-.61-.97-.11-.38-.11-.79,0-1.23l.42-1.69c.11-.43.29-.78.56-1.07.27-.28.6-.47.99-.57.39-.1.81-.09,1.26.02.45.11.83.3,1.13.57.3.27.5.59.61.96.11.38.11.78,0,1.21l-.42,1.69c-.11.44-.3.8-.57,1.09-.27.29-.6.48-.99.57-.39.1-.81.09-1.26-.02-.45-.11-.83-.3-1.12-.57ZM46.94,12.57c.21-.13.35-.35.42-.64l.43-1.75c.07-.29.05-.54-.07-.76-.12-.22-.31-.36-.58-.42-.26-.06-.5-.03-.71.11-.21.14-.35.35-.42.64l-.43,1.75c-.07.29-.05.55.07.76.12.22.31.35.58.42.27.07.5.03.71-.1Z"/>
      <path class="cls-4" d="M56.53,11.72s0,.05,0,.08l-.48.91s-.03.04-.06.05-.05,0-.08,0l-1.33-.7s-.04,0-.06.02l-2.18,4.15s-.03.04-.06.05-.05,0-.08,0l-1.08-.57s-.04-.03-.05-.06c0-.03,0-.05,0-.08l2.18-4.15s0-.04-.02-.06l-1.29-.67s-.04-.03-.05-.06c0-.03,0-.05,0-.08l.48-.91s.03-.04.06-.05c.03,0,.05,0,.08,0l3.96,2.08s.04.03.05.06Z"/>
      <path class="cls-4" d="M60.32,16.26s-.05,0-.08-.02l-2.11-1.68s-.04-.02-.06,0l-.67.83s-.02.04,0,.06l1.35,1.08s.04.04.04.07c0,.03,0,.05-.02.08l-.63.79s-.04.04-.07.04-.05,0-.08-.02l-1.35-1.08s-.04-.02-.06,0l-.72.9s-.01.04,0,.06l2.11,1.68s.03.04.04.07c0,.03,0,.05-.02.08l-.64.8s-.04.04-.07.04c-.03,0-.05,0-.08-.02l-3.18-2.54s-.04-.04-.04-.07c0-.03,0-.05.02-.08l3.66-4.59s.04-.04.07-.04c.03,0,.05,0,.08.02l3.18,2.54s.04.04.04.07c0,.03,0,.05-.02.08l-.64.8s-.04.04-.07.04Z"/>
      <path class="cls-4" d="M59.55,22.74l1.1-2.27s0-.04,0-.06l-.37-.43s-.04-.02-.06,0l-1.73,1.47s-.05.03-.08.03c-.03,0-.05-.01-.07-.04l-.79-.93s-.03-.05-.02-.08c0-.03.01-.05.04-.07l4.47-3.81s.05-.03.08-.02c.03,0,.05.01.07.04l1.65,1.95c.25.29.4.59.47.91.07.32.04.63-.07.94-.12.31-.32.58-.6.82-.29.25-.61.4-.95.44-.34.04-.67-.03-.98-.2-.03-.01-.05,0-.06.02l-1.08,2.41s-.02.04-.03.05c-.03.03-.07.02-.11-.03l-.84-.98s-.04-.09-.02-.14ZM62.06,18.4l-.94.8s-.02.04,0,.06l.62.73c.14.16.29.25.47.28s.34-.03.49-.16c.16-.13.24-.29.24-.46,0-.18-.06-.35-.2-.51l-.62-.73s-.04-.02-.06,0Z"/>
      <path class="cls-4" d="M67.9,24.74l.59,1.06s.02.05,0,.08c0,.03-.02.05-.05.06l-5.12,2.86s-.05.02-.08,0c-.03,0-.05-.03-.06-.05l-.59-1.06s-.02-.05,0-.08c0-.03.02-.05.05-.06l3.05-1.7s.03-.02.02-.03c0,0-.02-.02-.04-.02l-1.41-.06c-.05,0-.09-.02-.12-.07l-.3-.53c-.03-.05-.03-.1,0-.14l.69-1.24s.01-.03,0-.04c0,0-.02,0-.04,0l-3.06,1.71s-.05.02-.08,0c-.03,0-.05-.02-.06-.05l-.6-1.07s-.02-.05,0-.08c0-.03.03-.05.05-.06l5.12-2.86s.05-.02.08,0,.05.02.06.05l.59,1.06s.02.09,0,.14l-1.07,1.97s-.01.05.03.04l2.23.11c.05,0,.09.02.12.07Z"/>
      <path class="cls-4" d="M63.26,29.47s.03-.04.06-.05l5.49-2.07s.05,0,.08,0c.03.01.04.03.05.06l.43,1.14s0,.05,0,.08c-.01.03-.03.04-.06.05l-5.5,2.07s-.05,0-.08,0c-.03-.01-.04-.03-.05-.06l-.43-1.14s0-.05,0-.08Z"/>
      <path class="cls-4" d="M64.39,32.22c.1-.38.3-.69.58-.95.28-.26.64-.43,1.06-.52l1.84-.39c.42-.09.81-.07,1.17.05.36.12.66.33.91.63.25.3.42.68.51,1.13s.09.86,0,1.24c-.09.37-.27.69-.54.94-.26.25-.59.42-.99.5-.03,0-.05,0-.07-.02-.02-.01-.03-.04-.04-.06l-.33-1.18c-.01-.07.01-.11.07-.12.27-.06.46-.18.59-.37.12-.19.16-.41.11-.67-.05-.26-.18-.45-.37-.57-.19-.12-.42-.16-.68-.1l-1.93.41c-.26.06-.45.18-.58.37-.12.19-.16.41-.11.67.05.26.18.45.37.57.19.12.42.16.68.1.06-.01.1.01.12.08l.19,1.21s0,.05-.01.08c-.01.02-.03.04-.05.04-.4.08-.78.07-1.12-.06-.35-.12-.64-.34-.88-.64-.24-.31-.41-.68-.5-1.13s-.09-.86.01-1.24Z"/>
      <path class="cls-4" d="M65.23,37.11c.19-.35.45-.63.79-.83.34-.2.74-.3,1.19-.3h1.74c.44-.01.83.08,1.17.27.34.19.6.46.8.82.19.35.29.76.29,1.22s-.09.88-.27,1.23c-.19.36-.45.63-.79.83-.34.2-.73.3-1.17.3h-1.74c-.45.01-.85-.08-1.19-.27-.34-.19-.61-.47-.8-.82-.19-.35-.29-.76-.29-1.23,0-.46.09-.87.27-1.23ZM66.46,38.99c.18.17.42.25.72.25h1.8c.3-.01.53-.1.71-.27.18-.17.27-.39.27-.67,0-.27-.09-.49-.28-.66-.18-.17-.42-.25-.72-.25h-1.8c-.3.01-.54.1-.72.27s-.27.39-.26.66c0,.27.09.5.27.66Z"/>
      <path class="cls-1" d="M9.99,47c2.32,13.55,14.09,23.88,28.3,23.88s25.98-10.32,28.3-23.88"/>
      <g>
        <path class="cls-4" d="M92.2,16.01c2.45,0,4.31,1.41,4.89,3.69h-2.76c-.43-.9-1.21-1.35-2.16-1.35-1.54,0-2.6,1.17-2.6,3.03s1.06,3.03,2.6,3.03c.96,0,1.73-.45,2.16-1.35h2.76c-.59,2.28-2.44,3.67-4.89,3.67-3.04,0-5.19-2.21-5.19-5.35s2.14-5.37,5.19-5.37Z"/>
        <path class="cls-4" d="M103.15,26.77c-2.92,0-5.3-2.24-5.3-5.4s2.38-5.38,5.3-5.38,5.28,2.22,5.28,5.38-2.35,5.4-5.28,5.4ZM103.15,24.43c1.65,0,2.72-1.21,2.72-3.06s-1.07-3.06-2.72-3.06-2.73,1.18-2.73,3.06,1.06,3.06,2.73,3.06Z"/>
        <path class="cls-4" d="M118.7,16.13v10.53h-2.51l-4.2-6.5v6.5h-2.51v-10.53h2.51l4.2,6.52v-6.52h2.51Z"/>
        <path class="cls-4" d="M119.62,16.13h7.98v2.05h-2.73v8.47h-2.51v-8.47h-2.73v-2.05Z"/>
        <path class="cls-4" d="M132.73,16.13c2.53,0,3.79,1.48,3.79,3.31,0,1.32-.71,2.57-2.29,3.04l2.38,4.17h-2.84l-2.15-3.97h-.6v3.97h-2.51v-10.53h4.22ZM132.58,18.26h-1.56v2.61h1.56c.94,0,1.38-.5,1.38-1.32,0-.78-.44-1.29-1.38-1.29Z"/>
        <path class="cls-4" d="M137.73,16.13h2.51v10.53h-2.51v-10.53Z"/>
        <path class="cls-4" d="M146.52,26.66h-4.8v-10.53h4.64c2.1,0,3.35,1.06,3.35,2.73,0,1.28-.75,2.1-1.75,2.4,1.21.25,1.98,1.33,1.98,2.53,0,1.74-1.25,2.87-3.42,2.87ZM145.87,18.19h-1.65v2.21h1.65c.82,0,1.28-.38,1.28-1.09s-.46-1.11-1.28-1.11ZM146.05,22.27h-1.82v2.32h1.85c.84,0,1.32-.39,1.32-1.14s-.51-1.18-1.35-1.18Z"/>
        <path class="cls-4" d="M150.99,16.13h2.51v6.3c0,1.24.6,1.96,1.79,1.96s1.82-.72,1.82-1.96v-6.3h2.51v6.28c0,2.91-2,4.35-4.38,4.35s-4.26-1.44-4.26-4.35v-6.28Z"/>
        <path class="cls-4" d="M160.49,16.13h7.98v2.05h-2.73v8.47h-2.51v-8.47h-2.73v-2.05Z"/>
        <path class="cls-4" d="M174.26,26.77c-2.92,0-5.3-2.24-5.3-5.4s2.38-5.38,5.3-5.38,5.28,2.22,5.28,5.38-2.35,5.4-5.28,5.4ZM174.26,24.43c1.65,0,2.72-1.21,2.72-3.06s-1.07-3.06-2.72-3.06-2.73,1.18-2.73,3.06,1.06,3.06,2.73,3.06Z"/>
        <path class="cls-4" d="M189.75,24.8h-3.85l-.62,1.86h-2.63l3.73-10.53h2.91l3.73,10.53h-2.66l-.62-1.86ZM187.82,18.97l-1.26,3.85h2.54l-1.28-3.85Z"/>
      </g>
      <g>
        <path class="cls-4" d="M87.44,32.13h6.71v2.05h-4.2v2.22h3.14v2h-3.14v4.26h-2.51v-10.53Z"/>
        <path class="cls-4" d="M100.01,42.77c-2.92,0-5.3-2.24-5.3-5.4s2.38-5.38,5.3-5.38,5.28,2.22,5.28,5.38-2.35,5.4-5.28,5.4ZM100.01,40.43c1.65,0,2.72-1.21,2.72-3.06s-1.07-3.06-2.72-3.06-2.73,1.18-2.73,3.06,1.06,3.06,2.73,3.06Z"/>
        <path class="cls-4" d="M115.54,32.13v10.53h-2.51l-4.2-6.5v6.5h-2.51v-10.53h2.51l4.2,6.52v-6.52h2.51Z"/>
        <path class="cls-4" d="M126.29,37.4c0,3.12-2.12,5.26-5.41,5.26h-3.86v-10.53h3.86c3.29,0,5.41,2.13,5.41,5.26ZM120.72,40.44c1.9,0,3.01-1.11,3.01-3.04s-1.12-3.08-3.01-3.08h-1.19v6.12h1.19Z"/>
        <path class="cls-4" d="M132.23,42.77c-2.92,0-5.3-2.24-5.3-5.4s2.38-5.38,5.3-5.38,5.28,2.22,5.28,5.38-2.35,5.4-5.28,5.4ZM132.23,40.43c1.65,0,2.72-1.21,2.72-3.06s-1.07-3.06-2.72-3.06-2.73,1.18-2.73,3.06,1.06,3.06,2.73,3.06Z"/>
        <path class="cls-4" d="M145.39,38.88h-1.56v3.78h-2.51v-10.53h4.07c2.53,0,3.79,1.46,3.79,3.39,0,1.74-1.16,3.36-3.79,3.36ZM145.2,36.84c1,0,1.43-.51,1.43-1.32s-.43-1.32-1.43-1.32h-1.37v2.64h1.37Z"/>
        <path class="cls-4" d="M156.44,34.19h-3.81v2.13h3.37v1.98h-3.37v2.31h3.81v2.05h-6.32v-10.53h6.32v2.05Z"/>
        <path class="cls-4" d="M161.94,32.13c2.53,0,3.79,1.48,3.79,3.31,0,1.32-.71,2.57-2.29,3.04l2.38,4.17h-2.84l-2.15-3.97h-.6v3.97h-2.51v-10.53h4.22ZM161.79,34.26h-1.56v2.61h1.56c.94,0,1.38-.5,1.38-1.32,0-.78-.44-1.29-1.38-1.29Z"/>
        <path class="cls-4" d="M176.23,37.4c0,3.12-2.12,5.26-5.41,5.26h-3.86v-10.53h3.86c3.29,0,5.41,2.13,5.41,5.26ZM170.66,40.44c1.9,0,3.01-1.11,3.01-3.04s-1.12-3.08-3.01-3.08h-1.19v6.12h1.19Z"/>
        <path class="cls-4" d="M177.24,32.13h2.51v6.3c0,1.24.6,1.96,1.79,1.96s1.82-.72,1.82-1.96v-6.3h2.51v6.28c0,2.91-2,4.35-4.38,4.35s-4.26-1.44-4.26-4.35v-6.28Z"/>
        <path class="cls-4" d="M186.74,32.13h7.98v2.05h-2.73v8.47h-2.51v-8.47h-2.73v-2.05Z"/>
        <path class="cls-4" d="M200.51,42.77c-2.92,0-5.3-2.24-5.3-5.4s2.38-5.38,5.3-5.38,5.28,2.22,5.28,5.38-2.35,5.4-5.28,5.4ZM200.51,40.43c1.65,0,2.72-1.21,2.72-3.06s-1.07-3.06-2.72-3.06-2.73,1.18-2.73,3.06,1.06,3.06,2.73,3.06Z"/>
      </g>
      <g>
        <path class="cls-4" d="M86.88,48.13h7.98v2.05h-2.73v8.47h-2.51v-8.47h-2.73v-2.05Z"/>
        <path class="cls-4" d="M99.99,48.13c2.53,0,3.79,1.48,3.79,3.31,0,1.32-.71,2.57-2.29,3.04l2.38,4.17h-2.84l-2.15-3.97h-.6v3.97h-2.51v-10.53h4.22ZM99.85,50.26h-1.56v2.61h1.56c.94,0,1.38-.5,1.38-1.32,0-.78-.44-1.29-1.38-1.29Z"/>
        <path class="cls-4" d="M111.43,56.8h-3.85l-.62,1.86h-2.63l3.73-10.53h2.91l3.73,10.53h-2.66l-.62-1.86ZM109.5,50.97l-1.26,3.85h2.54l-1.28-3.85Z"/>
        <path class="cls-4" d="M118.25,48.13h2.51v10.53h-2.51v-10.53Z"/>
        <path class="cls-4" d="M124.75,48.13v8.55h3.29v1.98h-5.8v-10.53h2.51Z"/>
        <path class="cls-4" d="M135.16,47.46c2.26,0,3.48,1.32,3.48,2.97,0,1.44-.88,2.21-1.62,2.46v.06c1.07.36,1.81,1.2,1.81,2.64,0,1.85-1.29,3.17-3.54,3.17s-3.85-1.08-3.92-3.55h2.44c.01.85.47,1.42,1.4,1.42.78,0,1.21-.51,1.21-1.23,0-.98-.57-1.37-1.88-1.37h-.47v-2.08h.47c.85,0,1.67-.21,1.67-1.2,0-.73-.43-1.14-1.1-1.14-.81,0-1.1.6-1.15,1.2h-2.45c.09-2.16,1.47-3.34,3.66-3.34Z"/>
        <path class="cls-4" d="M147.58,47.7v2.25h-4.58v2.07c.38-.44,1.12-.75,1.97-.75,2.34,0,3.23,1.81,3.23,3.58,0,2.31-1.32,3.81-3.7,3.81s-3.81-1.37-3.89-3.25h2.45c.1.57.53,1.08,1.35,1.08.96,0,1.37-.71,1.37-1.65s-.48-1.51-1.38-1.51c-.71,0-1.12.39-1.25.9h-2.42v-6.53h6.86Z"/>
        <path class="cls-4" d="M151.53,47.94c1.4,0,2.44.87,2.44,2.54s-1.04,2.54-2.44,2.54-2.45-.87-2.45-2.54,1.06-2.54,2.45-2.54ZM150.81,50.47c0,.71.26,1.02.71,1.02s.72-.31.72-1.02-.28-1.04-.72-1.04-.71.32-.71,1.04ZM156.63,48.1h2.42l-5.66,10.56h-2.42l5.66-10.56ZM158.51,53.76c1.4,0,2.44.86,2.44,2.54s-1.04,2.54-2.44,2.54-2.44-.87-2.44-2.54,1.04-2.54,2.44-2.54ZM157.79,56.29c0,.71.26,1.02.71,1.02s.72-.32.72-1.02-.28-1.04-.72-1.04-.71.33-.71,1.04Z"/>
        <path class="cls-4" d="M171.2,50.19h-3.81v2.13h3.37v1.98h-3.37v2.31h3.81v2.05h-6.32v-10.53h6.32v2.05Z"/>
        <path class="cls-4" d="M175.39,48.13h2.51v10.53h-2.51v-10.53Z"/>
        <path class="cls-4" d="M181.96,48.13v8.55h3.29v1.98h-5.8v-10.53h2.51Z"/>
        <path class="cls-4" d="M194.07,50.67c-.15-.72-.5-1.11-1.25-1.11-1.13,0-1.57.97-1.59,3.09.43-.71,1.29-1.12,2.28-1.12,1.87,0,3.19,1.25,3.19,3.52s-1.35,3.67-3.66,3.67c-3.23,0-4.03-2.34-4.03-5.61,0-3.75,1.15-5.62,3.92-5.62,2.31,0,3.34,1.56,3.47,3.18h-2.34ZM191.44,55.02c0,.96.54,1.53,1.5,1.53.85,0,1.4-.55,1.4-1.48s-.49-1.52-1.43-1.52c-.79,0-1.47.48-1.47,1.47Z"/>
        <path class="cls-4" d="M205.39,47.7v2.25h-4.58v2.07c.38-.44,1.12-.75,1.97-.75,2.34,0,3.23,1.81,3.23,3.58,0,2.31-1.32,3.81-3.7,3.81s-3.81-1.37-3.89-3.25h2.45c.1.57.53,1.08,1.35,1.08.96,0,1.37-.71,1.37-1.65s-.48-1.51-1.38-1.51c-.71,0-1.12.39-1.25.9h-2.42v-6.53h6.86Z"/>
        <path class="cls-4" d="M209.36,47.94c1.4,0,2.44.87,2.44,2.54s-1.04,2.54-2.44,2.54-2.45-.87-2.45-2.54,1.06-2.54,2.45-2.54ZM208.64,50.47c0,.71.26,1.02.71,1.02s.72-.31.72-1.02-.28-1.04-.72-1.04-.71.32-.71,1.04ZM214.46,48.1h2.42l-5.66,10.56h-2.42l5.66-10.56ZM216.34,53.76c1.4,0,2.44.86,2.44,2.54s-1.04,2.54-2.44,2.54-2.44-.87-2.44-2.54,1.04-2.54,2.44-2.54ZM215.62,56.29c0,.71.26,1.02.71,1.02s.72-.32.72-1.02-.28-1.04-.72-1.04-.71.33-.71,1.04Z"/>
      </g>
    </g>
  </g>
</svg>